G04 #@! TF.FileFunction,Copper,L1,Top,Signal*
%FSLAX46Y46*%
G04 Gerber Fmt 4.6, Leading zero omitted, Abs format (unit mm)*
G04 Created by KiCad (PCBNEW 4.0.4-stable) date Tuesday 22 November 2016 20:45:13*
%MOMM*%
%LPD*%
G01*
G04 APERTURE LIST*
%ADD10C,0.100000*%
%ADD11R,1.800000X1.800000*%
%ADD12O,1.800000X1.800000*%
%ADD13R,2.032000X3.657600*%
%ADD14R,2.032000X1.016000*%
%ADD15R,1.250000X1.500000*%
%ADD16R,1.300000X1.500000*%
%ADD17R,0.800100X1.800860*%
%ADD18C,1.879600*%
%ADD19R,2.235200X2.235200*%
%ADD20C,0.600000*%
%ADD21C,0.250000*%
%ADD22C,0.254000*%
G04 APERTURE END LIST*
D10*
D11*
X127490000Y-103950000D03*
D12*
X127490000Y-101410000D03*
X127490000Y-98870000D03*
X127490000Y-96330000D03*
X127490000Y-93790000D03*
X127490000Y-91250000D03*
X127490000Y-88710000D03*
X127490000Y-86170000D03*
D11*
X150350000Y-103950000D03*
D12*
X150350000Y-101410000D03*
X150350000Y-98870000D03*
X150350000Y-96330000D03*
X150350000Y-93790000D03*
X150350000Y-91250000D03*
X150350000Y-88710000D03*
X150350000Y-86170000D03*
D13*
X144302000Y-97000000D03*
D14*
X137698000Y-97000000D03*
X137698000Y-99286000D03*
X137698000Y-94714000D03*
D15*
X133500000Y-98250000D03*
X133500000Y-95750000D03*
X144500000Y-90750000D03*
X144500000Y-88250000D03*
D16*
X134500000Y-88150000D03*
X134500000Y-90850000D03*
D17*
X138550000Y-91001140D03*
X140450000Y-91001140D03*
X139500000Y-87998860D03*
D18*
X133801200Y-106939400D03*
X127298800Y-106939400D03*
X133801200Y-111460600D03*
X127298800Y-111460600D03*
D19*
X144500000Y-104250000D03*
D20*
X137007000Y-86174200D03*
X144330500Y-82800000D03*
X135757700Y-96077500D03*
X145769800Y-86024000D03*
X141149400Y-96248600D03*
X139710400Y-96546000D03*
X141992500Y-94999500D03*
D21*
X137698000Y-97000000D02*
X136356700Y-97000000D01*
X135700300Y-97000000D02*
X134450300Y-98250000D01*
X136356700Y-97000000D02*
X135700300Y-97000000D01*
X134500000Y-88150000D02*
X135475300Y-88150000D01*
X133975200Y-98250000D02*
X134450300Y-98250000D01*
X134500000Y-88150000D02*
X134012400Y-88150000D01*
X133975200Y-98250000D02*
X133500000Y-98250000D01*
X132549700Y-89612700D02*
X134012400Y-88150000D01*
X132549700Y-98250000D02*
X132549700Y-89612700D01*
X133500000Y-98250000D02*
X132549700Y-98250000D01*
X137007000Y-86618300D02*
X137007000Y-86174200D01*
X135475300Y-88150000D02*
X137007000Y-86618300D01*
X140381200Y-82800000D02*
X144330500Y-82800000D01*
X137007000Y-86174200D02*
X140381200Y-82800000D01*
X144500000Y-90750000D02*
X143549700Y-90750000D01*
X137698000Y-97000000D02*
X139039300Y-97000000D01*
X143298600Y-91001100D02*
X143549700Y-90750000D01*
X140450000Y-91001100D02*
X143298600Y-91001100D01*
X139039300Y-92411800D02*
X139039300Y-97000000D01*
X140450000Y-91001100D02*
X139039300Y-92411800D01*
X147145300Y-103950000D02*
X150350000Y-103950000D01*
X143071000Y-99875700D02*
X147145300Y-103950000D01*
X141915000Y-99875700D02*
X143071000Y-99875700D01*
X139039300Y-97000000D02*
X141915000Y-99875700D01*
X140476500Y-88250000D02*
X140225400Y-87998900D01*
X143549700Y-88250000D02*
X140476500Y-88250000D01*
X137698000Y-94714000D02*
X136000000Y-94750000D01*
X139725000Y-87998900D02*
X140225400Y-87998900D01*
X139725000Y-87998900D02*
X139724600Y-87998900D01*
X144500000Y-88250000D02*
X144137500Y-88250000D01*
X144137500Y-88250000D02*
X143549700Y-88250000D01*
X144137500Y-87656300D02*
X145769800Y-86024000D01*
X144137500Y-88250000D02*
X144137500Y-87656300D01*
X135750000Y-95250000D02*
X134450300Y-95750000D01*
X135750000Y-95000000D02*
X135750000Y-95250000D01*
X136000000Y-94750000D02*
X135750000Y-95000000D01*
X135750000Y-95250000D02*
X135757700Y-96077500D01*
X139500000Y-87998900D02*
X139724600Y-87998900D01*
X133625000Y-95750000D02*
X134450300Y-95750000D01*
X133625000Y-95750000D02*
X133524600Y-95750000D01*
X133500000Y-95750000D02*
X133524600Y-95750000D01*
X137374400Y-89399200D02*
X138774700Y-87998900D01*
X134007800Y-89399200D02*
X137374400Y-89399200D01*
X133524600Y-89882400D02*
X134007800Y-89399200D01*
X133524600Y-95750000D02*
X133524600Y-89882400D01*
X139500000Y-87998900D02*
X138774700Y-87998900D01*
X131692700Y-103950000D02*
X127490000Y-103950000D01*
X136356700Y-99286000D02*
X131692700Y-103950000D01*
X137698000Y-99286000D02*
X136356700Y-99286000D01*
X141149400Y-97174500D02*
X141149400Y-96248600D01*
X145384900Y-101410000D02*
X141149400Y-97174500D01*
X150350000Y-101410000D02*
X145384900Y-101410000D01*
X150350000Y-96330000D02*
X149124700Y-96330000D01*
X140633100Y-95623300D02*
X139710400Y-96546000D01*
X141408500Y-95623300D02*
X140633100Y-95623300D01*
X141410000Y-95624800D02*
X141408500Y-95623300D01*
X142340400Y-95624800D02*
X141410000Y-95624800D01*
X143126900Y-94838300D02*
X142340400Y-95624800D01*
X147633000Y-94838300D02*
X143126900Y-94838300D01*
X149124700Y-96330000D02*
X147633000Y-94838300D01*
X143202000Y-93790000D02*
X141992500Y-94999500D01*
X150350000Y-93790000D02*
X143202000Y-93790000D01*
X127490000Y-96330000D02*
X128715300Y-96330000D01*
X127298800Y-106939400D02*
X133801200Y-106939400D01*
X131710700Y-99325400D02*
X128715300Y-96330000D01*
X135224700Y-99325400D02*
X131710700Y-99325400D01*
X136097500Y-98452600D02*
X135224700Y-99325400D01*
X138853100Y-98452600D02*
X136097500Y-98452600D01*
X139039400Y-98638900D02*
X138853100Y-98452600D01*
X139039400Y-99943400D02*
X139039400Y-98638900D01*
X133801200Y-105181600D02*
X139039400Y-99943400D01*
X133801200Y-106939400D02*
X133801200Y-105181600D01*
X150350000Y-91250000D02*
X149124700Y-91250000D01*
X147549300Y-89674600D02*
X149124700Y-91250000D01*
X139967200Y-89674600D02*
X147549300Y-89674600D01*
X139275400Y-90366400D02*
X139967200Y-89674600D01*
X139275400Y-91001100D02*
X139275400Y-90366400D01*
X138682100Y-91001100D02*
X139275400Y-91001100D01*
X138682100Y-91001100D02*
X138550000Y-91001100D01*
X135626400Y-91001100D02*
X135475300Y-90850000D01*
X138550000Y-91001100D02*
X135626400Y-91001100D01*
X134500000Y-90850000D02*
X135475300Y-90850000D01*
D22*
G36*
X132465371Y-107830287D02*
X132907983Y-108273672D01*
X133486579Y-108513926D01*
X134113073Y-108514473D01*
X134692087Y-108275229D01*
X135135472Y-107832617D01*
X135173000Y-107742240D01*
X135173000Y-110627883D01*
X135170780Y-110622523D01*
X134910168Y-110531237D01*
X133980805Y-111460600D01*
X133994948Y-111474743D01*
X133815343Y-111654348D01*
X133801200Y-111640205D01*
X133787058Y-111654348D01*
X133607453Y-111474743D01*
X133621595Y-111460600D01*
X132692232Y-110531237D01*
X132431620Y-110622523D01*
X132215155Y-111210433D01*
X132240151Y-111836428D01*
X132349280Y-112099890D01*
X128745383Y-112089540D01*
X128884845Y-111710767D01*
X128859849Y-111084772D01*
X128668380Y-110622523D01*
X128407768Y-110531237D01*
X127478405Y-111460600D01*
X127492548Y-111474743D01*
X127312943Y-111654348D01*
X127298800Y-111640205D01*
X127284658Y-111654348D01*
X127105053Y-111474743D01*
X127119195Y-111460600D01*
X127105053Y-111446458D01*
X127284658Y-111266853D01*
X127298800Y-111280995D01*
X128228163Y-110351632D01*
X132871837Y-110351632D01*
X133801200Y-111280995D01*
X134730563Y-110351632D01*
X134639277Y-110091020D01*
X134051367Y-109874555D01*
X133425372Y-109899551D01*
X132963123Y-110091020D01*
X132871837Y-110351632D01*
X128228163Y-110351632D01*
X128136877Y-110091020D01*
X127548967Y-109874555D01*
X126922972Y-109899551D01*
X126686051Y-109997687D01*
X126686772Y-108390432D01*
X126984179Y-108513926D01*
X127610673Y-108514473D01*
X128189687Y-108275229D01*
X128633072Y-107832617D01*
X128688389Y-107699400D01*
X132411290Y-107699400D01*
X132465371Y-107830287D01*
X132465371Y-107830287D01*
G37*
X132465371Y-107830287D02*
X132907983Y-108273672D01*
X133486579Y-108513926D01*
X134113073Y-108514473D01*
X134692087Y-108275229D01*
X135135472Y-107832617D01*
X135173000Y-107742240D01*
X135173000Y-110627883D01*
X135170780Y-110622523D01*
X134910168Y-110531237D01*
X133980805Y-111460600D01*
X133994948Y-111474743D01*
X133815343Y-111654348D01*
X133801200Y-111640205D01*
X133787058Y-111654348D01*
X133607453Y-111474743D01*
X133621595Y-111460600D01*
X132692232Y-110531237D01*
X132431620Y-110622523D01*
X132215155Y-111210433D01*
X132240151Y-111836428D01*
X132349280Y-112099890D01*
X128745383Y-112089540D01*
X128884845Y-111710767D01*
X128859849Y-111084772D01*
X128668380Y-110622523D01*
X128407768Y-110531237D01*
X127478405Y-111460600D01*
X127492548Y-111474743D01*
X127312943Y-111654348D01*
X127298800Y-111640205D01*
X127284658Y-111654348D01*
X127105053Y-111474743D01*
X127119195Y-111460600D01*
X127105053Y-111446458D01*
X127284658Y-111266853D01*
X127298800Y-111280995D01*
X128228163Y-110351632D01*
X132871837Y-110351632D01*
X133801200Y-111280995D01*
X134730563Y-110351632D01*
X134639277Y-110091020D01*
X134051367Y-109874555D01*
X133425372Y-109899551D01*
X132963123Y-110091020D01*
X132871837Y-110351632D01*
X128228163Y-110351632D01*
X128136877Y-110091020D01*
X127548967Y-109874555D01*
X126922972Y-109899551D01*
X126686051Y-109997687D01*
X126686772Y-108390432D01*
X126984179Y-108513926D01*
X127610673Y-108514473D01*
X128189687Y-108275229D01*
X128633072Y-107832617D01*
X128688389Y-107699400D01*
X132411290Y-107699400D01*
X132465371Y-107830287D01*
G36*
X131173299Y-99862801D02*
X131419860Y-100027548D01*
X131710700Y-100085400D01*
X134482498Y-100085400D01*
X131377898Y-103190000D01*
X129037440Y-103190000D01*
X129037440Y-103050000D01*
X128993162Y-102814683D01*
X128854090Y-102598559D01*
X128641890Y-102453569D01*
X128586090Y-102442269D01*
X128802240Y-102206417D01*
X128981036Y-101774740D01*
X128860378Y-101537000D01*
X127617000Y-101537000D01*
X127617000Y-101557000D01*
X127363000Y-101557000D01*
X127363000Y-101537000D01*
X127343000Y-101537000D01*
X127343000Y-101283000D01*
X127363000Y-101283000D01*
X127363000Y-101263000D01*
X127617000Y-101263000D01*
X127617000Y-101283000D01*
X128860378Y-101283000D01*
X128981036Y-101045260D01*
X128802240Y-100613583D01*
X128397576Y-100172034D01*
X128329075Y-100140097D01*
X128605481Y-99955409D01*
X128938227Y-99457419D01*
X129055072Y-98870000D01*
X128938227Y-98282581D01*
X128605481Y-97784591D01*
X128329221Y-97600000D01*
X128605481Y-97415409D01*
X128653717Y-97343219D01*
X131173299Y-99862801D01*
X131173299Y-99862801D01*
G37*
X131173299Y-99862801D02*
X131419860Y-100027548D01*
X131710700Y-100085400D01*
X134482498Y-100085400D01*
X131377898Y-103190000D01*
X129037440Y-103190000D01*
X129037440Y-103050000D01*
X128993162Y-102814683D01*
X128854090Y-102598559D01*
X128641890Y-102453569D01*
X128586090Y-102442269D01*
X128802240Y-102206417D01*
X128981036Y-101774740D01*
X128860378Y-101537000D01*
X127617000Y-101537000D01*
X127617000Y-101557000D01*
X127363000Y-101557000D01*
X127363000Y-101537000D01*
X127343000Y-101537000D01*
X127343000Y-101283000D01*
X127363000Y-101283000D01*
X127363000Y-101263000D01*
X127617000Y-101263000D01*
X127617000Y-101283000D01*
X128860378Y-101283000D01*
X128981036Y-101045260D01*
X128802240Y-100613583D01*
X128397576Y-100172034D01*
X128329075Y-100140097D01*
X128605481Y-99955409D01*
X128938227Y-99457419D01*
X129055072Y-98870000D01*
X128938227Y-98282581D01*
X128605481Y-97784591D01*
X128329221Y-97600000D01*
X128605481Y-97415409D01*
X128653717Y-97343219D01*
X131173299Y-99862801D01*
G36*
X148709121Y-79262244D02*
X148934273Y-79371140D01*
X150904321Y-81833700D01*
X150996126Y-82542729D01*
X150998593Y-84772627D01*
X150967491Y-84751845D01*
X150380072Y-84635000D01*
X150319928Y-84635000D01*
X149732509Y-84751845D01*
X149234519Y-85084591D01*
X148901773Y-85582581D01*
X148784928Y-86170000D01*
X148901773Y-86757419D01*
X149234519Y-87255409D01*
X149510779Y-87440000D01*
X149234519Y-87624591D01*
X148901773Y-88122581D01*
X148784928Y-88710000D01*
X148901773Y-89297419D01*
X149234519Y-89795409D01*
X149510779Y-89980000D01*
X149234519Y-90164591D01*
X149186283Y-90236781D01*
X148086701Y-89137199D01*
X147840139Y-88972452D01*
X147549300Y-88914600D01*
X145760000Y-88914600D01*
X145760000Y-88535750D01*
X145601250Y-88377000D01*
X144627000Y-88377000D01*
X144627000Y-88397000D01*
X144373000Y-88397000D01*
X144373000Y-88377000D01*
X143398750Y-88377000D01*
X143240000Y-88535750D01*
X143240000Y-88914600D01*
X140535050Y-88914600D01*
X140535050Y-88284610D01*
X140376300Y-88125860D01*
X139627000Y-88125860D01*
X139627000Y-88145860D01*
X139373000Y-88145860D01*
X139373000Y-88125860D01*
X138623700Y-88125860D01*
X138464950Y-88284610D01*
X138464950Y-89025600D01*
X138561623Y-89258989D01*
X138740252Y-89437617D01*
X138778042Y-89453270D01*
X138149950Y-89453270D01*
X137914633Y-89497548D01*
X137698509Y-89636620D01*
X137553519Y-89848820D01*
X137502510Y-90100710D01*
X137502510Y-90241100D01*
X135905695Y-90241100D01*
X135797440Y-90168767D01*
X135797440Y-90100000D01*
X135753162Y-89864683D01*
X135614090Y-89648559D01*
X135401890Y-89503569D01*
X135388803Y-89500919D01*
X135601441Y-89364090D01*
X135746431Y-89151890D01*
X135797440Y-88900000D01*
X135797440Y-88831233D01*
X136012701Y-88687401D01*
X137544401Y-87155701D01*
X137667065Y-86972120D01*
X138464950Y-86972120D01*
X138464950Y-87713110D01*
X138623700Y-87871860D01*
X139373000Y-87871860D01*
X139373000Y-86622180D01*
X139627000Y-86622180D01*
X139627000Y-87871860D01*
X140376300Y-87871860D01*
X140535050Y-87713110D01*
X140535050Y-87373691D01*
X143240000Y-87373691D01*
X143240000Y-87964250D01*
X143398750Y-88123000D01*
X144373000Y-88123000D01*
X144373000Y-87023750D01*
X144627000Y-87023750D01*
X144627000Y-88123000D01*
X145601250Y-88123000D01*
X145760000Y-87964250D01*
X145760000Y-87373691D01*
X145663327Y-87140302D01*
X145484699Y-86961673D01*
X145251310Y-86865000D01*
X144785750Y-86865000D01*
X144627000Y-87023750D01*
X144373000Y-87023750D01*
X144214250Y-86865000D01*
X143748690Y-86865000D01*
X143515301Y-86961673D01*
X143336673Y-87140302D01*
X143240000Y-87373691D01*
X140535050Y-87373691D01*
X140535050Y-86972120D01*
X140438377Y-86738731D01*
X140259748Y-86560103D01*
X140026359Y-86463430D01*
X139785750Y-86463430D01*
X139627000Y-86622180D01*
X139373000Y-86622180D01*
X139214250Y-86463430D01*
X138973641Y-86463430D01*
X138740252Y-86560103D01*
X138561623Y-86738731D01*
X138464950Y-86972120D01*
X137667065Y-86972120D01*
X137709148Y-86909139D01*
X137737623Y-86765989D01*
X137799192Y-86704527D01*
X137941838Y-86360999D01*
X137941879Y-86314123D01*
X140696002Y-83560000D01*
X143768037Y-83560000D01*
X143800173Y-83592192D01*
X144143701Y-83734838D01*
X144515667Y-83735162D01*
X144859443Y-83593117D01*
X145122692Y-83330327D01*
X145265338Y-82986799D01*
X145265662Y-82614833D01*
X145123617Y-82271057D01*
X144860827Y-82007808D01*
X144517299Y-81865162D01*
X144145333Y-81864838D01*
X143801557Y-82006883D01*
X143768382Y-82040000D01*
X140381200Y-82040000D01*
X140138614Y-82088254D01*
X140090360Y-82097852D01*
X139843799Y-82262599D01*
X136867320Y-85239078D01*
X136821833Y-85239038D01*
X136478057Y-85381083D01*
X136214808Y-85643873D01*
X136072162Y-85987401D01*
X136071838Y-86359367D01*
X136106717Y-86443781D01*
X135606871Y-86943627D01*
X135401890Y-86803569D01*
X135150000Y-86752560D01*
X133850000Y-86752560D01*
X133614683Y-86796838D01*
X133398559Y-86935910D01*
X133253569Y-87148110D01*
X133202560Y-87400000D01*
X133202560Y-87885038D01*
X132012299Y-89075299D01*
X131847552Y-89321861D01*
X131789700Y-89612700D01*
X131789700Y-98250000D01*
X131809465Y-98349363D01*
X129252701Y-95792599D01*
X129006139Y-95627852D01*
X128839407Y-95594687D01*
X128605481Y-95244591D01*
X128329221Y-95060000D01*
X128605481Y-94875409D01*
X128938227Y-94377419D01*
X129055072Y-93790000D01*
X128938227Y-93202581D01*
X128605481Y-92704591D01*
X128329221Y-92520000D01*
X128605481Y-92335409D01*
X128938227Y-91837419D01*
X129055072Y-91250000D01*
X128938227Y-90662581D01*
X128605481Y-90164591D01*
X128329221Y-89980000D01*
X128605481Y-89795409D01*
X128938227Y-89297419D01*
X129055072Y-88710000D01*
X128938227Y-88122581D01*
X128605481Y-87624591D01*
X128329221Y-87440000D01*
X128605481Y-87255409D01*
X128938227Y-86757419D01*
X129055072Y-86170000D01*
X128938227Y-85582581D01*
X128605481Y-85084591D01*
X128107491Y-84751845D01*
X127520072Y-84635000D01*
X127459928Y-84635000D01*
X126872509Y-84751845D01*
X126697336Y-84868892D01*
X126698657Y-81927000D01*
X135900000Y-81927000D01*
X135946159Y-81918315D01*
X135988553Y-81891035D01*
X136016994Y-81849410D01*
X136027000Y-81800000D01*
X136027000Y-79101897D01*
X148235878Y-79083455D01*
X148709121Y-79262244D01*
X148709121Y-79262244D01*
G37*
X148709121Y-79262244D02*
X148934273Y-79371140D01*
X150904321Y-81833700D01*
X150996126Y-82542729D01*
X150998593Y-84772627D01*
X150967491Y-84751845D01*
X150380072Y-84635000D01*
X150319928Y-84635000D01*
X149732509Y-84751845D01*
X149234519Y-85084591D01*
X148901773Y-85582581D01*
X148784928Y-86170000D01*
X148901773Y-86757419D01*
X149234519Y-87255409D01*
X149510779Y-87440000D01*
X149234519Y-87624591D01*
X148901773Y-88122581D01*
X148784928Y-88710000D01*
X148901773Y-89297419D01*
X149234519Y-89795409D01*
X149510779Y-89980000D01*
X149234519Y-90164591D01*
X149186283Y-90236781D01*
X148086701Y-89137199D01*
X147840139Y-88972452D01*
X147549300Y-88914600D01*
X145760000Y-88914600D01*
X145760000Y-88535750D01*
X145601250Y-88377000D01*
X144627000Y-88377000D01*
X144627000Y-88397000D01*
X144373000Y-88397000D01*
X144373000Y-88377000D01*
X143398750Y-88377000D01*
X143240000Y-88535750D01*
X143240000Y-88914600D01*
X140535050Y-88914600D01*
X140535050Y-88284610D01*
X140376300Y-88125860D01*
X139627000Y-88125860D01*
X139627000Y-88145860D01*
X139373000Y-88145860D01*
X139373000Y-88125860D01*
X138623700Y-88125860D01*
X138464950Y-88284610D01*
X138464950Y-89025600D01*
X138561623Y-89258989D01*
X138740252Y-89437617D01*
X138778042Y-89453270D01*
X138149950Y-89453270D01*
X137914633Y-89497548D01*
X137698509Y-89636620D01*
X137553519Y-89848820D01*
X137502510Y-90100710D01*
X137502510Y-90241100D01*
X135905695Y-90241100D01*
X135797440Y-90168767D01*
X135797440Y-90100000D01*
X135753162Y-89864683D01*
X135614090Y-89648559D01*
X135401890Y-89503569D01*
X135388803Y-89500919D01*
X135601441Y-89364090D01*
X135746431Y-89151890D01*
X135797440Y-88900000D01*
X135797440Y-88831233D01*
X136012701Y-88687401D01*
X137544401Y-87155701D01*
X137667065Y-86972120D01*
X138464950Y-86972120D01*
X138464950Y-87713110D01*
X138623700Y-87871860D01*
X139373000Y-87871860D01*
X139373000Y-86622180D01*
X139627000Y-86622180D01*
X139627000Y-87871860D01*
X140376300Y-87871860D01*
X140535050Y-87713110D01*
X140535050Y-87373691D01*
X143240000Y-87373691D01*
X143240000Y-87964250D01*
X143398750Y-88123000D01*
X144373000Y-88123000D01*
X144373000Y-87023750D01*
X144627000Y-87023750D01*
X144627000Y-88123000D01*
X145601250Y-88123000D01*
X145760000Y-87964250D01*
X145760000Y-87373691D01*
X145663327Y-87140302D01*
X145484699Y-86961673D01*
X145251310Y-86865000D01*
X144785750Y-86865000D01*
X144627000Y-87023750D01*
X144373000Y-87023750D01*
X144214250Y-86865000D01*
X143748690Y-86865000D01*
X143515301Y-86961673D01*
X143336673Y-87140302D01*
X143240000Y-87373691D01*
X140535050Y-87373691D01*
X140535050Y-86972120D01*
X140438377Y-86738731D01*
X140259748Y-86560103D01*
X140026359Y-86463430D01*
X139785750Y-86463430D01*
X139627000Y-86622180D01*
X139373000Y-86622180D01*
X139214250Y-86463430D01*
X138973641Y-86463430D01*
X138740252Y-86560103D01*
X138561623Y-86738731D01*
X138464950Y-86972120D01*
X137667065Y-86972120D01*
X137709148Y-86909139D01*
X137737623Y-86765989D01*
X137799192Y-86704527D01*
X137941838Y-86360999D01*
X137941879Y-86314123D01*
X140696002Y-83560000D01*
X143768037Y-83560000D01*
X143800173Y-83592192D01*
X144143701Y-83734838D01*
X144515667Y-83735162D01*
X144859443Y-83593117D01*
X145122692Y-83330327D01*
X145265338Y-82986799D01*
X145265662Y-82614833D01*
X145123617Y-82271057D01*
X144860827Y-82007808D01*
X144517299Y-81865162D01*
X144145333Y-81864838D01*
X143801557Y-82006883D01*
X143768382Y-82040000D01*
X140381200Y-82040000D01*
X140138614Y-82088254D01*
X140090360Y-82097852D01*
X139843799Y-82262599D01*
X136867320Y-85239078D01*
X136821833Y-85239038D01*
X136478057Y-85381083D01*
X136214808Y-85643873D01*
X136072162Y-85987401D01*
X136071838Y-86359367D01*
X136106717Y-86443781D01*
X135606871Y-86943627D01*
X135401890Y-86803569D01*
X135150000Y-86752560D01*
X133850000Y-86752560D01*
X133614683Y-86796838D01*
X133398559Y-86935910D01*
X133253569Y-87148110D01*
X133202560Y-87400000D01*
X133202560Y-87885038D01*
X132012299Y-89075299D01*
X131847552Y-89321861D01*
X131789700Y-89612700D01*
X131789700Y-98250000D01*
X131809465Y-98349363D01*
X129252701Y-95792599D01*
X129006139Y-95627852D01*
X128839407Y-95594687D01*
X128605481Y-95244591D01*
X128329221Y-95060000D01*
X128605481Y-94875409D01*
X128938227Y-94377419D01*
X129055072Y-93790000D01*
X128938227Y-93202581D01*
X128605481Y-92704591D01*
X128329221Y-92520000D01*
X128605481Y-92335409D01*
X128938227Y-91837419D01*
X129055072Y-91250000D01*
X128938227Y-90662581D01*
X128605481Y-90164591D01*
X128329221Y-89980000D01*
X128605481Y-89795409D01*
X128938227Y-89297419D01*
X129055072Y-88710000D01*
X128938227Y-88122581D01*
X128605481Y-87624591D01*
X128329221Y-87440000D01*
X128605481Y-87255409D01*
X128938227Y-86757419D01*
X129055072Y-86170000D01*
X128938227Y-85582581D01*
X128605481Y-85084591D01*
X128107491Y-84751845D01*
X127520072Y-84635000D01*
X127459928Y-84635000D01*
X126872509Y-84751845D01*
X126697336Y-84868892D01*
X126698657Y-81927000D01*
X135900000Y-81927000D01*
X135946159Y-81918315D01*
X135988553Y-81891035D01*
X136016994Y-81849410D01*
X136027000Y-81800000D01*
X136027000Y-79101897D01*
X148235878Y-79083455D01*
X148709121Y-79262244D01*
G36*
X137502510Y-91901570D02*
X137546788Y-92136887D01*
X137685860Y-92353011D01*
X137898060Y-92498001D01*
X138149950Y-92549010D01*
X138279300Y-92549010D01*
X138279300Y-93571000D01*
X137983750Y-93571000D01*
X137825000Y-93729750D01*
X137825000Y-94587000D01*
X137845000Y-94587000D01*
X137845000Y-94841000D01*
X137825000Y-94841000D01*
X137825000Y-94861000D01*
X137571000Y-94861000D01*
X137571000Y-94841000D01*
X136205750Y-94841000D01*
X136047000Y-94999750D01*
X136047000Y-95348309D01*
X136143673Y-95581698D01*
X136322301Y-95760327D01*
X136555690Y-95857000D01*
X136615887Y-95857000D01*
X136446683Y-95888838D01*
X136230559Y-96027910D01*
X136085644Y-96240000D01*
X135700300Y-96240000D01*
X135409461Y-96297852D01*
X135162899Y-96462599D01*
X134581871Y-97043627D01*
X134520994Y-97002031D01*
X134663327Y-96859698D01*
X134760000Y-96626309D01*
X134760000Y-96035750D01*
X134601250Y-95877000D01*
X133627000Y-95877000D01*
X133627000Y-95897000D01*
X133373000Y-95897000D01*
X133373000Y-95877000D01*
X133353000Y-95877000D01*
X133353000Y-95623000D01*
X133373000Y-95623000D01*
X133373000Y-94523750D01*
X133627000Y-94523750D01*
X133627000Y-95623000D01*
X134601250Y-95623000D01*
X134760000Y-95464250D01*
X134760000Y-94873691D01*
X134663327Y-94640302D01*
X134484699Y-94461673D01*
X134251310Y-94365000D01*
X133785750Y-94365000D01*
X133627000Y-94523750D01*
X133373000Y-94523750D01*
X133309700Y-94460450D01*
X133309700Y-94079691D01*
X136047000Y-94079691D01*
X136047000Y-94428250D01*
X136205750Y-94587000D01*
X137571000Y-94587000D01*
X137571000Y-93729750D01*
X137412250Y-93571000D01*
X136555690Y-93571000D01*
X136322301Y-93667673D01*
X136143673Y-93846302D01*
X136047000Y-94079691D01*
X133309700Y-94079691D01*
X133309700Y-91933007D01*
X133385910Y-92051441D01*
X133598110Y-92196431D01*
X133850000Y-92247440D01*
X135150000Y-92247440D01*
X135385317Y-92203162D01*
X135601441Y-92064090D01*
X135746431Y-91851890D01*
X135764816Y-91761100D01*
X137502510Y-91761100D01*
X137502510Y-91901570D01*
X137502510Y-91901570D01*
G37*
X137502510Y-91901570D02*
X137546788Y-92136887D01*
X137685860Y-92353011D01*
X137898060Y-92498001D01*
X138149950Y-92549010D01*
X138279300Y-92549010D01*
X138279300Y-93571000D01*
X137983750Y-93571000D01*
X137825000Y-93729750D01*
X137825000Y-94587000D01*
X137845000Y-94587000D01*
X137845000Y-94841000D01*
X137825000Y-94841000D01*
X137825000Y-94861000D01*
X137571000Y-94861000D01*
X137571000Y-94841000D01*
X136205750Y-94841000D01*
X136047000Y-94999750D01*
X136047000Y-95348309D01*
X136143673Y-95581698D01*
X136322301Y-95760327D01*
X136555690Y-95857000D01*
X136615887Y-95857000D01*
X136446683Y-95888838D01*
X136230559Y-96027910D01*
X136085644Y-96240000D01*
X135700300Y-96240000D01*
X135409461Y-96297852D01*
X135162899Y-96462599D01*
X134581871Y-97043627D01*
X134520994Y-97002031D01*
X134663327Y-96859698D01*
X134760000Y-96626309D01*
X134760000Y-96035750D01*
X134601250Y-95877000D01*
X133627000Y-95877000D01*
X133627000Y-95897000D01*
X133373000Y-95897000D01*
X133373000Y-95877000D01*
X133353000Y-95877000D01*
X133353000Y-95623000D01*
X133373000Y-95623000D01*
X133373000Y-94523750D01*
X133627000Y-94523750D01*
X133627000Y-95623000D01*
X134601250Y-95623000D01*
X134760000Y-95464250D01*
X134760000Y-94873691D01*
X134663327Y-94640302D01*
X134484699Y-94461673D01*
X134251310Y-94365000D01*
X133785750Y-94365000D01*
X133627000Y-94523750D01*
X133373000Y-94523750D01*
X133309700Y-94460450D01*
X133309700Y-94079691D01*
X136047000Y-94079691D01*
X136047000Y-94428250D01*
X136205750Y-94587000D01*
X137571000Y-94587000D01*
X137571000Y-93729750D01*
X137412250Y-93571000D01*
X136555690Y-93571000D01*
X136322301Y-93667673D01*
X136143673Y-93846302D01*
X136047000Y-94079691D01*
X133309700Y-94079691D01*
X133309700Y-91933007D01*
X133385910Y-92051441D01*
X133598110Y-92196431D01*
X133850000Y-92247440D01*
X135150000Y-92247440D01*
X135385317Y-92203162D01*
X135601441Y-92064090D01*
X135746431Y-91851890D01*
X135764816Y-91761100D01*
X137502510Y-91761100D01*
X137502510Y-91901570D01*
M02*
