G04 #@! TF.FileFunction,Soldermask,Bot*
%FSLAX46Y46*%
G04 Gerber Fmt 4.6, Leading zero omitted, Abs format (unit mm)*
G04 Created by KiCad (PCBNEW 4.0.4-stable) date Tuesday 22 November 2016 20:45:13*
%MOMM*%
%LPD*%
G01*
G04 APERTURE LIST*
%ADD10C,0.100000*%
%ADD11R,1.600000X3.400000*%
%ADD12R,1.400000X2.400000*%
%ADD13R,2.200000X2.200000*%
%ADD14O,2.200000X2.200000*%
%ADD15R,1.650000X1.900000*%
%ADD16C,2.279600*%
%ADD17R,2.635200X2.635200*%
G04 APERTURE END LIST*
D10*
D11*
X132500000Y-80700000D03*
X134500000Y-80700000D03*
X136500000Y-80700000D03*
X138500000Y-80700000D03*
X140500000Y-80700000D03*
X142500000Y-80700000D03*
X144500000Y-80700000D03*
X146500000Y-80700000D03*
X146500000Y-100400000D03*
X144500000Y-100400000D03*
X142500000Y-100400000D03*
X140500000Y-100400000D03*
X138500000Y-100400000D03*
X136500000Y-100400000D03*
X134500000Y-100400000D03*
X132500000Y-100400000D03*
D12*
X137100000Y-93400000D03*
X138370000Y-93400000D03*
X139640000Y-93400000D03*
X140910000Y-93400000D03*
X142180000Y-93400000D03*
X143450000Y-93400000D03*
X144720000Y-93400000D03*
X145990000Y-93400000D03*
X137100000Y-84400000D03*
X138370000Y-84400000D03*
X139640000Y-84400000D03*
X140910000Y-84400000D03*
X142180000Y-84400000D03*
X143450000Y-84400000D03*
X144720000Y-84400000D03*
X145990000Y-84400000D03*
D13*
X127490000Y-103950000D03*
D14*
X127490000Y-101410000D03*
X127490000Y-98870000D03*
X127490000Y-96330000D03*
X127490000Y-93790000D03*
X127490000Y-91250000D03*
X127490000Y-88710000D03*
X127490000Y-86170000D03*
D13*
X150350000Y-103950000D03*
D14*
X150350000Y-101410000D03*
X150350000Y-98870000D03*
X150350000Y-96330000D03*
X150350000Y-93790000D03*
X150350000Y-91250000D03*
X150350000Y-88710000D03*
X150350000Y-86170000D03*
D15*
X149000000Y-80550000D03*
X149000000Y-83050000D03*
D16*
X133801200Y-106939400D03*
X127298800Y-106939400D03*
X133801200Y-111460600D03*
X127298800Y-111460600D03*
D17*
X144500000Y-104250000D03*
M02*
