G04 #@! TF.FileFunction,Legend,Top*
%FSLAX46Y46*%
G04 Gerber Fmt 4.6, Leading zero omitted, Abs format (unit mm)*
G04 Created by KiCad (PCBNEW 4.0.4-stable) date Tuesday 22 November 2016 20:45:13*
%MOMM*%
%LPD*%
G01*
G04 APERTURE LIST*
%ADD10C,0.100000*%
%ADD11C,0.150000*%
%ADD12C,0.250000*%
G04 APERTURE END LIST*
D10*
D11*
X132422619Y-81727381D02*
X132422619Y-80727381D01*
X132755953Y-81441667D01*
X133089286Y-80727381D01*
X133089286Y-81727381D01*
X133470238Y-81060714D02*
X133708333Y-81727381D01*
X133946429Y-81060714D02*
X133708333Y-81727381D01*
X133613095Y-81965476D01*
X133565476Y-82013095D01*
X133470238Y-82060714D01*
X134279762Y-81679762D02*
X134422619Y-81727381D01*
X134660715Y-81727381D01*
X134755953Y-81679762D01*
X134803572Y-81632143D01*
X134851191Y-81536905D01*
X134851191Y-81441667D01*
X134803572Y-81346429D01*
X134755953Y-81298810D01*
X134660715Y-81251190D01*
X134470238Y-81203571D01*
X134375000Y-81155952D01*
X134327381Y-81108333D01*
X134279762Y-81013095D01*
X134279762Y-80917857D01*
X134327381Y-80822619D01*
X134375000Y-80775000D01*
X134470238Y-80727381D01*
X134708334Y-80727381D01*
X134851191Y-80775000D01*
X135184524Y-80727381D02*
X135422619Y-81727381D01*
X135613096Y-81013095D01*
X135803572Y-81727381D01*
X136041667Y-80727381D01*
X136803572Y-81679762D02*
X136708334Y-81727381D01*
X136517857Y-81727381D01*
X136422619Y-81679762D01*
X136375000Y-81584524D01*
X136375000Y-81203571D01*
X136422619Y-81108333D01*
X136517857Y-81060714D01*
X136708334Y-81060714D01*
X136803572Y-81108333D01*
X136851191Y-81203571D01*
X136851191Y-81298810D01*
X136375000Y-81394048D01*
X137279762Y-81727381D02*
X137279762Y-80727381D01*
X137613096Y-81441667D01*
X137946429Y-80727381D01*
X137946429Y-81727381D01*
X138565476Y-81727381D02*
X138470238Y-81679762D01*
X138422619Y-81632143D01*
X138375000Y-81536905D01*
X138375000Y-81251190D01*
X138422619Y-81155952D01*
X138470238Y-81108333D01*
X138565476Y-81060714D01*
X138708334Y-81060714D01*
X138803572Y-81108333D01*
X138851191Y-81155952D01*
X138898810Y-81251190D01*
X138898810Y-81536905D01*
X138851191Y-81632143D01*
X138803572Y-81679762D01*
X138708334Y-81727381D01*
X138565476Y-81727381D01*
X139279762Y-81679762D02*
X139375000Y-81727381D01*
X139565476Y-81727381D01*
X139660715Y-81679762D01*
X139708334Y-81584524D01*
X139708334Y-81536905D01*
X139660715Y-81441667D01*
X139565476Y-81394048D01*
X139422619Y-81394048D01*
X139327381Y-81346429D01*
X139279762Y-81251190D01*
X139279762Y-81203571D01*
X139327381Y-81108333D01*
X139422619Y-81060714D01*
X139565476Y-81060714D01*
X139660715Y-81108333D01*
X140660715Y-80775000D02*
X140565477Y-80727381D01*
X140422620Y-80727381D01*
X140279762Y-80775000D01*
X140184524Y-80870238D01*
X140136905Y-80965476D01*
X140089286Y-81155952D01*
X140089286Y-81298810D01*
X140136905Y-81489286D01*
X140184524Y-81584524D01*
X140279762Y-81679762D01*
X140422620Y-81727381D01*
X140517858Y-81727381D01*
X140660715Y-81679762D01*
X140708334Y-81632143D01*
X140708334Y-81298810D01*
X140517858Y-81298810D01*
X141041667Y-80727381D02*
X141279762Y-81727381D01*
X141470239Y-81013095D01*
X141660715Y-81727381D01*
X141898810Y-80727381D01*
X142232143Y-81679762D02*
X142375000Y-81727381D01*
X142613096Y-81727381D01*
X142708334Y-81679762D01*
X142755953Y-81632143D01*
X142803572Y-81536905D01*
X142803572Y-81441667D01*
X142755953Y-81346429D01*
X142708334Y-81298810D01*
X142613096Y-81251190D01*
X142422619Y-81203571D01*
X142327381Y-81155952D01*
X142279762Y-81108333D01*
X142232143Y-81013095D01*
X142232143Y-80917857D01*
X142279762Y-80822619D01*
X142327381Y-80775000D01*
X142422619Y-80727381D01*
X142660715Y-80727381D01*
X142803572Y-80775000D01*
X143232143Y-81727381D02*
X143232143Y-80727381D01*
X143660715Y-81727381D02*
X143660715Y-81203571D01*
X143613096Y-81108333D01*
X143517858Y-81060714D01*
X143375000Y-81060714D01*
X143279762Y-81108333D01*
X143232143Y-81155952D01*
X144136905Y-81727381D02*
X144136905Y-81060714D01*
X144136905Y-80727381D02*
X144089286Y-80775000D01*
X144136905Y-80822619D01*
X144184524Y-80775000D01*
X144136905Y-80727381D01*
X144136905Y-80822619D01*
X144994048Y-81679762D02*
X144898810Y-81727381D01*
X144708333Y-81727381D01*
X144613095Y-81679762D01*
X144565476Y-81584524D01*
X144565476Y-81203571D01*
X144613095Y-81108333D01*
X144708333Y-81060714D01*
X144898810Y-81060714D01*
X144994048Y-81108333D01*
X145041667Y-81203571D01*
X145041667Y-81298810D01*
X144565476Y-81394048D01*
X145613095Y-81727381D02*
X145517857Y-81679762D01*
X145470238Y-81584524D01*
X145470238Y-80727381D01*
X146422620Y-81727381D02*
X146422620Y-80727381D01*
X146422620Y-81679762D02*
X146327382Y-81727381D01*
X146136905Y-81727381D01*
X146041667Y-81679762D01*
X145994048Y-81632143D01*
X145946429Y-81536905D01*
X145946429Y-81251190D01*
X145994048Y-81155952D01*
X146041667Y-81108333D01*
X146136905Y-81060714D01*
X146327382Y-81060714D01*
X146422620Y-81108333D01*
X147565477Y-81060714D02*
X147803572Y-81727381D01*
X148041668Y-81060714D01*
X148946430Y-81727381D02*
X148375001Y-81727381D01*
X148660715Y-81727381D02*
X148660715Y-80727381D01*
X148565477Y-80870238D01*
X148470239Y-80965476D01*
X148375001Y-81013095D01*
X149375001Y-81632143D02*
X149422620Y-81679762D01*
X149375001Y-81727381D01*
X149327382Y-81679762D01*
X149375001Y-81632143D01*
X149375001Y-81727381D01*
X150041667Y-80727381D02*
X150136906Y-80727381D01*
X150232144Y-80775000D01*
X150279763Y-80822619D01*
X150327382Y-80917857D01*
X150375001Y-81108333D01*
X150375001Y-81346429D01*
X150327382Y-81536905D01*
X150279763Y-81632143D01*
X150232144Y-81679762D01*
X150136906Y-81727381D01*
X150041667Y-81727381D01*
X149946429Y-81679762D01*
X149898810Y-81632143D01*
X149851191Y-81536905D01*
X149803572Y-81346429D01*
X149803572Y-81108333D01*
X149851191Y-80917857D01*
X149898810Y-80822619D01*
X149946429Y-80775000D01*
X150041667Y-80727381D01*
X133636905Y-82710714D02*
X133636905Y-83520238D01*
X133589286Y-83615476D01*
X133541667Y-83663095D01*
X133446428Y-83710714D01*
X133303571Y-83710714D01*
X133208333Y-83663095D01*
X133636905Y-83329762D02*
X133541667Y-83377381D01*
X133351190Y-83377381D01*
X133255952Y-83329762D01*
X133208333Y-83282143D01*
X133160714Y-83186905D01*
X133160714Y-82901190D01*
X133208333Y-82805952D01*
X133255952Y-82758333D01*
X133351190Y-82710714D01*
X133541667Y-82710714D01*
X133636905Y-82758333D01*
X134113095Y-83377381D02*
X134113095Y-82710714D01*
X134113095Y-82377381D02*
X134065476Y-82425000D01*
X134113095Y-82472619D01*
X134160714Y-82425000D01*
X134113095Y-82377381D01*
X134113095Y-82472619D01*
X134446428Y-82710714D02*
X134827380Y-82710714D01*
X134589285Y-82377381D02*
X134589285Y-83234524D01*
X134636904Y-83329762D01*
X134732142Y-83377381D01*
X134827380Y-83377381D01*
X135160714Y-83377381D02*
X135160714Y-82377381D01*
X135589286Y-83377381D02*
X135589286Y-82853571D01*
X135541667Y-82758333D01*
X135446429Y-82710714D01*
X135303571Y-82710714D01*
X135208333Y-82758333D01*
X135160714Y-82805952D01*
X136494048Y-82710714D02*
X136494048Y-83377381D01*
X136065476Y-82710714D02*
X136065476Y-83234524D01*
X136113095Y-83329762D01*
X136208333Y-83377381D01*
X136351191Y-83377381D01*
X136446429Y-83329762D01*
X136494048Y-83282143D01*
X136970238Y-83377381D02*
X136970238Y-82377381D01*
X136970238Y-82758333D02*
X137065476Y-82710714D01*
X137255953Y-82710714D01*
X137351191Y-82758333D01*
X137398810Y-82805952D01*
X137446429Y-82901190D01*
X137446429Y-83186905D01*
X137398810Y-83282143D01*
X137351191Y-83329762D01*
X137255953Y-83377381D01*
X137065476Y-83377381D01*
X136970238Y-83329762D01*
X137875000Y-83282143D02*
X137922619Y-83329762D01*
X137875000Y-83377381D01*
X137827381Y-83329762D01*
X137875000Y-83282143D01*
X137875000Y-83377381D01*
X138779762Y-83329762D02*
X138684524Y-83377381D01*
X138494047Y-83377381D01*
X138398809Y-83329762D01*
X138351190Y-83282143D01*
X138303571Y-83186905D01*
X138303571Y-82901190D01*
X138351190Y-82805952D01*
X138398809Y-82758333D01*
X138494047Y-82710714D01*
X138684524Y-82710714D01*
X138779762Y-82758333D01*
X139351190Y-83377381D02*
X139255952Y-83329762D01*
X139208333Y-83282143D01*
X139160714Y-83186905D01*
X139160714Y-82901190D01*
X139208333Y-82805952D01*
X139255952Y-82758333D01*
X139351190Y-82710714D01*
X139494048Y-82710714D01*
X139589286Y-82758333D01*
X139636905Y-82805952D01*
X139684524Y-82901190D01*
X139684524Y-83186905D01*
X139636905Y-83282143D01*
X139589286Y-83329762D01*
X139494048Y-83377381D01*
X139351190Y-83377381D01*
X140113095Y-83377381D02*
X140113095Y-82710714D01*
X140113095Y-82805952D02*
X140160714Y-82758333D01*
X140255952Y-82710714D01*
X140398810Y-82710714D01*
X140494048Y-82758333D01*
X140541667Y-82853571D01*
X140541667Y-83377381D01*
X140541667Y-82853571D02*
X140589286Y-82758333D01*
X140684524Y-82710714D01*
X140827381Y-82710714D01*
X140922619Y-82758333D01*
X140970238Y-82853571D01*
X140970238Y-83377381D01*
X142160714Y-82329762D02*
X141303571Y-83615476D01*
X142875000Y-83329762D02*
X142779762Y-83377381D01*
X142589285Y-83377381D01*
X142494047Y-83329762D01*
X142446428Y-83234524D01*
X142446428Y-82853571D01*
X142494047Y-82758333D01*
X142589285Y-82710714D01*
X142779762Y-82710714D01*
X142875000Y-82758333D01*
X142922619Y-82853571D01*
X142922619Y-82948810D01*
X142446428Y-83044048D01*
X143351190Y-83377381D02*
X143351190Y-82710714D01*
X143351190Y-82805952D02*
X143398809Y-82758333D01*
X143494047Y-82710714D01*
X143636905Y-82710714D01*
X143732143Y-82758333D01*
X143779762Y-82853571D01*
X143779762Y-83377381D01*
X143779762Y-82853571D02*
X143827381Y-82758333D01*
X143922619Y-82710714D01*
X144065476Y-82710714D01*
X144160714Y-82758333D01*
X144208333Y-82853571D01*
X144208333Y-83377381D01*
X145113095Y-83329762D02*
X145017857Y-83377381D01*
X144827380Y-83377381D01*
X144732142Y-83329762D01*
X144684523Y-83282143D01*
X144636904Y-83186905D01*
X144636904Y-82901190D01*
X144684523Y-82805952D01*
X144732142Y-82758333D01*
X144827380Y-82710714D01*
X145017857Y-82710714D01*
X145113095Y-82758333D01*
X145494047Y-82472619D02*
X145541666Y-82425000D01*
X145636904Y-82377381D01*
X145875000Y-82377381D01*
X145970238Y-82425000D01*
X146017857Y-82472619D01*
X146065476Y-82567857D01*
X146065476Y-82663095D01*
X146017857Y-82805952D01*
X145446428Y-83377381D01*
X146065476Y-83377381D01*
X146922619Y-83329762D02*
X146827381Y-83377381D01*
X146636904Y-83377381D01*
X146541666Y-83329762D01*
X146494047Y-83282143D01*
X146446428Y-83186905D01*
X146446428Y-82901190D01*
X146494047Y-82805952D01*
X146541666Y-82758333D01*
X146636904Y-82710714D01*
X146827381Y-82710714D01*
X146922619Y-82758333D01*
X147779762Y-82710714D02*
X147779762Y-83377381D01*
X147351190Y-82710714D02*
X147351190Y-83234524D01*
X147398809Y-83329762D01*
X147494047Y-83377381D01*
X147636905Y-83377381D01*
X147732143Y-83329762D01*
X147779762Y-83282143D01*
X148255952Y-83377381D02*
X148255952Y-82377381D01*
X148255952Y-82758333D02*
X148351190Y-82710714D01*
X148541667Y-82710714D01*
X148636905Y-82758333D01*
X148684524Y-82805952D01*
X148732143Y-82901190D01*
X148732143Y-83186905D01*
X148684524Y-83282143D01*
X148636905Y-83329762D01*
X148541667Y-83377381D01*
X148351190Y-83377381D01*
X148255952Y-83329762D01*
X149541667Y-83329762D02*
X149446429Y-83377381D01*
X149255952Y-83377381D01*
X149160714Y-83329762D01*
X149113095Y-83234524D01*
X149113095Y-82853571D01*
X149160714Y-82758333D01*
X149255952Y-82710714D01*
X149446429Y-82710714D01*
X149541667Y-82758333D01*
X149589286Y-82853571D01*
X149589286Y-82948810D01*
X149113095Y-83044048D01*
D12*
X129738096Y-101000000D02*
X129642858Y-100952381D01*
X129500001Y-100952381D01*
X129357143Y-101000000D01*
X129261905Y-101095238D01*
X129214286Y-101190476D01*
X129166667Y-101380952D01*
X129166667Y-101523810D01*
X129214286Y-101714286D01*
X129261905Y-101809524D01*
X129357143Y-101904762D01*
X129500001Y-101952381D01*
X129595239Y-101952381D01*
X129738096Y-101904762D01*
X129785715Y-101857143D01*
X129785715Y-101523810D01*
X129595239Y-101523810D01*
X130214286Y-101952381D02*
X130214286Y-100952381D01*
X130785715Y-101952381D01*
X130785715Y-100952381D01*
X131261905Y-101952381D02*
X131261905Y-100952381D01*
X131500000Y-100952381D01*
X131642858Y-101000000D01*
X131738096Y-101095238D01*
X131785715Y-101190476D01*
X131833334Y-101380952D01*
X131833334Y-101523810D01*
X131785715Y-101714286D01*
X131738096Y-101809524D01*
X131642858Y-101904762D01*
X131500000Y-101952381D01*
X131261905Y-101952381D01*
X146852381Y-86552381D02*
X146519047Y-86076190D01*
X146280952Y-86552381D02*
X146280952Y-85552381D01*
X146661905Y-85552381D01*
X146757143Y-85600000D01*
X146804762Y-85647619D01*
X146852381Y-85742857D01*
X146852381Y-85885714D01*
X146804762Y-85980952D01*
X146757143Y-86028571D01*
X146661905Y-86076190D01*
X146280952Y-86076190D01*
X147233333Y-86504762D02*
X147376190Y-86552381D01*
X147614286Y-86552381D01*
X147709524Y-86504762D01*
X147757143Y-86457143D01*
X147804762Y-86361905D01*
X147804762Y-86266667D01*
X147757143Y-86171429D01*
X147709524Y-86123810D01*
X147614286Y-86076190D01*
X147423809Y-86028571D01*
X147328571Y-85980952D01*
X147280952Y-85933333D01*
X147233333Y-85838095D01*
X147233333Y-85742857D01*
X147280952Y-85647619D01*
X147328571Y-85600000D01*
X147423809Y-85552381D01*
X147661905Y-85552381D01*
X147804762Y-85600000D01*
X148090476Y-85552381D02*
X148661905Y-85552381D01*
X148376190Y-86552381D02*
X148376190Y-85552381D01*
X147085714Y-88866667D02*
X147561905Y-88866667D01*
X146990476Y-89152381D02*
X147323809Y-88152381D01*
X147657143Y-89152381D01*
X148180952Y-88152381D02*
X148276191Y-88152381D01*
X148371429Y-88200000D01*
X148419048Y-88247619D01*
X148466667Y-88342857D01*
X148514286Y-88533333D01*
X148514286Y-88771429D01*
X148466667Y-88961905D01*
X148419048Y-89057143D01*
X148371429Y-89104762D01*
X148276191Y-89152381D01*
X148180952Y-89152381D01*
X148085714Y-89104762D01*
X148038095Y-89057143D01*
X147990476Y-88961905D01*
X147942857Y-88771429D01*
X147942857Y-88533333D01*
X147990476Y-88342857D01*
X148038095Y-88247619D01*
X148085714Y-88200000D01*
X148180952Y-88152381D01*
X147061905Y-91752381D02*
X147061905Y-90752381D01*
X147300000Y-90752381D01*
X147442858Y-90800000D01*
X147538096Y-90895238D01*
X147585715Y-90990476D01*
X147633334Y-91180952D01*
X147633334Y-91323810D01*
X147585715Y-91514286D01*
X147538096Y-91609524D01*
X147442858Y-91704762D01*
X147300000Y-91752381D01*
X147061905Y-91752381D01*
X148252381Y-90752381D02*
X148347620Y-90752381D01*
X148442858Y-90800000D01*
X148490477Y-90847619D01*
X148538096Y-90942857D01*
X148585715Y-91133333D01*
X148585715Y-91371429D01*
X148538096Y-91561905D01*
X148490477Y-91657143D01*
X148442858Y-91704762D01*
X148347620Y-91752381D01*
X148252381Y-91752381D01*
X148157143Y-91704762D01*
X148109524Y-91657143D01*
X148061905Y-91561905D01*
X148014286Y-91371429D01*
X148014286Y-91133333D01*
X148061905Y-90942857D01*
X148109524Y-90847619D01*
X148157143Y-90800000D01*
X148252381Y-90752381D01*
X147061905Y-94352381D02*
X147061905Y-93352381D01*
X147300000Y-93352381D01*
X147442858Y-93400000D01*
X147538096Y-93495238D01*
X147585715Y-93590476D01*
X147633334Y-93780952D01*
X147633334Y-93923810D01*
X147585715Y-94114286D01*
X147538096Y-94209524D01*
X147442858Y-94304762D01*
X147300000Y-94352381D01*
X147061905Y-94352381D01*
X148538096Y-93352381D02*
X148061905Y-93352381D01*
X148014286Y-93828571D01*
X148061905Y-93780952D01*
X148157143Y-93733333D01*
X148395239Y-93733333D01*
X148490477Y-93780952D01*
X148538096Y-93828571D01*
X148585715Y-93923810D01*
X148585715Y-94161905D01*
X148538096Y-94257143D01*
X148490477Y-94304762D01*
X148395239Y-94352381D01*
X148157143Y-94352381D01*
X148061905Y-94304762D01*
X148014286Y-94257143D01*
X147061905Y-96852381D02*
X147061905Y-95852381D01*
X147300000Y-95852381D01*
X147442858Y-95900000D01*
X147538096Y-95995238D01*
X147585715Y-96090476D01*
X147633334Y-96280952D01*
X147633334Y-96423810D01*
X147585715Y-96614286D01*
X147538096Y-96709524D01*
X147442858Y-96804762D01*
X147300000Y-96852381D01*
X147061905Y-96852381D01*
X148490477Y-95852381D02*
X148300000Y-95852381D01*
X148204762Y-95900000D01*
X148157143Y-95947619D01*
X148061905Y-96090476D01*
X148014286Y-96280952D01*
X148014286Y-96661905D01*
X148061905Y-96757143D01*
X148109524Y-96804762D01*
X148204762Y-96852381D01*
X148395239Y-96852381D01*
X148490477Y-96804762D01*
X148538096Y-96757143D01*
X148585715Y-96661905D01*
X148585715Y-96423810D01*
X148538096Y-96328571D01*
X148490477Y-96280952D01*
X148395239Y-96233333D01*
X148204762Y-96233333D01*
X148109524Y-96280952D01*
X148061905Y-96328571D01*
X148014286Y-96423810D01*
X147061905Y-99252381D02*
X147061905Y-98252381D01*
X147300000Y-98252381D01*
X147442858Y-98300000D01*
X147538096Y-98395238D01*
X147585715Y-98490476D01*
X147633334Y-98680952D01*
X147633334Y-98823810D01*
X147585715Y-99014286D01*
X147538096Y-99109524D01*
X147442858Y-99204762D01*
X147300000Y-99252381D01*
X147061905Y-99252381D01*
X147966667Y-98252381D02*
X148633334Y-98252381D01*
X148204762Y-99252381D01*
X147061905Y-101852381D02*
X147061905Y-100852381D01*
X147300000Y-100852381D01*
X147442858Y-100900000D01*
X147538096Y-100995238D01*
X147585715Y-101090476D01*
X147633334Y-101280952D01*
X147633334Y-101423810D01*
X147585715Y-101614286D01*
X147538096Y-101709524D01*
X147442858Y-101804762D01*
X147300000Y-101852381D01*
X147061905Y-101852381D01*
X148204762Y-101280952D02*
X148109524Y-101233333D01*
X148061905Y-101185714D01*
X148014286Y-101090476D01*
X148014286Y-101042857D01*
X148061905Y-100947619D01*
X148109524Y-100900000D01*
X148204762Y-100852381D01*
X148395239Y-100852381D01*
X148490477Y-100900000D01*
X148538096Y-100947619D01*
X148585715Y-101042857D01*
X148585715Y-101090476D01*
X148538096Y-101185714D01*
X148490477Y-101233333D01*
X148395239Y-101280952D01*
X148204762Y-101280952D01*
X148109524Y-101328571D01*
X148061905Y-101376190D01*
X148014286Y-101471429D01*
X148014286Y-101661905D01*
X148061905Y-101757143D01*
X148109524Y-101804762D01*
X148204762Y-101852381D01*
X148395239Y-101852381D01*
X148490477Y-101804762D01*
X148538096Y-101757143D01*
X148585715Y-101661905D01*
X148585715Y-101471429D01*
X148538096Y-101376190D01*
X148490477Y-101328571D01*
X148395239Y-101280952D01*
X145861905Y-103352381D02*
X146480953Y-103352381D01*
X146147619Y-103733333D01*
X146290477Y-103733333D01*
X146385715Y-103780952D01*
X146433334Y-103828571D01*
X146480953Y-103923810D01*
X146480953Y-104161905D01*
X146433334Y-104257143D01*
X146385715Y-104304762D01*
X146290477Y-104352381D01*
X146004762Y-104352381D01*
X145909524Y-104304762D01*
X145861905Y-104257143D01*
X146766667Y-103352381D02*
X147100000Y-104352381D01*
X147433334Y-103352381D01*
X147671429Y-103352381D02*
X148290477Y-103352381D01*
X147957143Y-103733333D01*
X148100001Y-103733333D01*
X148195239Y-103780952D01*
X148242858Y-103828571D01*
X148290477Y-103923810D01*
X148290477Y-104161905D01*
X148242858Y-104257143D01*
X148195239Y-104304762D01*
X148100001Y-104352381D01*
X147814286Y-104352381D01*
X147719048Y-104304762D01*
X147671429Y-104257143D01*
X129038095Y-85652381D02*
X129609524Y-85652381D01*
X129323809Y-86652381D02*
X129323809Y-85652381D01*
X129847619Y-85652381D02*
X130514286Y-86652381D01*
X130514286Y-85652381D02*
X129847619Y-86652381D01*
X129833334Y-89252381D02*
X129500000Y-88776190D01*
X129261905Y-89252381D02*
X129261905Y-88252381D01*
X129642858Y-88252381D01*
X129738096Y-88300000D01*
X129785715Y-88347619D01*
X129833334Y-88442857D01*
X129833334Y-88585714D01*
X129785715Y-88680952D01*
X129738096Y-88728571D01*
X129642858Y-88776190D01*
X129261905Y-88776190D01*
X130166667Y-88252381D02*
X130833334Y-89252381D01*
X130833334Y-88252381D02*
X130166667Y-89252381D01*
X129261905Y-91652381D02*
X129261905Y-90652381D01*
X129500000Y-90652381D01*
X129642858Y-90700000D01*
X129738096Y-90795238D01*
X129785715Y-90890476D01*
X129833334Y-91080952D01*
X129833334Y-91223810D01*
X129785715Y-91414286D01*
X129738096Y-91509524D01*
X129642858Y-91604762D01*
X129500000Y-91652381D01*
X129261905Y-91652381D01*
X130785715Y-91652381D02*
X130214286Y-91652381D01*
X130500000Y-91652381D02*
X130500000Y-90652381D01*
X130404762Y-90795238D01*
X130309524Y-90890476D01*
X130214286Y-90938095D01*
X129261905Y-94252381D02*
X129261905Y-93252381D01*
X129500000Y-93252381D01*
X129642858Y-93300000D01*
X129738096Y-93395238D01*
X129785715Y-93490476D01*
X129833334Y-93680952D01*
X129833334Y-93823810D01*
X129785715Y-94014286D01*
X129738096Y-94109524D01*
X129642858Y-94204762D01*
X129500000Y-94252381D01*
X129261905Y-94252381D01*
X130214286Y-93347619D02*
X130261905Y-93300000D01*
X130357143Y-93252381D01*
X130595239Y-93252381D01*
X130690477Y-93300000D01*
X130738096Y-93347619D01*
X130785715Y-93442857D01*
X130785715Y-93538095D01*
X130738096Y-93680952D01*
X130166667Y-94252381D01*
X130785715Y-94252381D01*
X129261905Y-96852381D02*
X129261905Y-95852381D01*
X129500000Y-95852381D01*
X129642858Y-95900000D01*
X129738096Y-95995238D01*
X129785715Y-96090476D01*
X129833334Y-96280952D01*
X129833334Y-96423810D01*
X129785715Y-96614286D01*
X129738096Y-96709524D01*
X129642858Y-96804762D01*
X129500000Y-96852381D01*
X129261905Y-96852381D01*
X130166667Y-95852381D02*
X130785715Y-95852381D01*
X130452381Y-96233333D01*
X130595239Y-96233333D01*
X130690477Y-96280952D01*
X130738096Y-96328571D01*
X130785715Y-96423810D01*
X130785715Y-96661905D01*
X130738096Y-96757143D01*
X130690477Y-96804762D01*
X130595239Y-96852381D01*
X130309524Y-96852381D01*
X130214286Y-96804762D01*
X130166667Y-96757143D01*
X129261905Y-99452381D02*
X129261905Y-98452381D01*
X129500000Y-98452381D01*
X129642858Y-98500000D01*
X129738096Y-98595238D01*
X129785715Y-98690476D01*
X129833334Y-98880952D01*
X129833334Y-99023810D01*
X129785715Y-99214286D01*
X129738096Y-99309524D01*
X129642858Y-99404762D01*
X129500000Y-99452381D01*
X129261905Y-99452381D01*
X130690477Y-98785714D02*
X130690477Y-99452381D01*
X130452381Y-98404762D02*
X130214286Y-99119048D01*
X130833334Y-99119048D01*
X129709524Y-103452381D02*
X129233333Y-103452381D01*
X129185714Y-103928571D01*
X129233333Y-103880952D01*
X129328571Y-103833333D01*
X129566667Y-103833333D01*
X129661905Y-103880952D01*
X129709524Y-103928571D01*
X129757143Y-104023810D01*
X129757143Y-104261905D01*
X129709524Y-104357143D01*
X129661905Y-104404762D01*
X129566667Y-104452381D01*
X129328571Y-104452381D01*
X129233333Y-104404762D01*
X129185714Y-104357143D01*
X130042857Y-103452381D02*
X130376190Y-104452381D01*
X130709524Y-103452381D01*
D11*
X127219460Y-83079640D02*
X126960380Y-83640980D01*
X126960380Y-83640980D02*
X127498860Y-84159140D01*
X127498860Y-84159140D02*
X128019560Y-83889900D01*
X128019560Y-83889900D02*
X128298960Y-84049920D01*
X129739140Y-84029600D02*
X130069340Y-83839100D01*
X130069340Y-83839100D02*
X130508760Y-84169300D01*
X130508760Y-84169300D02*
X130981200Y-83679080D01*
X130981200Y-83679080D02*
X130699260Y-83199020D01*
X130699260Y-83199020D02*
X130889760Y-82729120D01*
X130889760Y-82729120D02*
X131499360Y-82541160D01*
X131499360Y-82541160D02*
X131499360Y-81860440D01*
X131499360Y-81860440D02*
X130940560Y-81720740D01*
X130940560Y-81720740D02*
X130739900Y-81149240D01*
X130739900Y-81149240D02*
X131009140Y-80679340D01*
X131009140Y-80679340D02*
X130539240Y-80168800D01*
X130539240Y-80168800D02*
X130021080Y-80430420D01*
X130021080Y-80430420D02*
X129551180Y-80229760D01*
X129551180Y-80229760D02*
X129381000Y-79688740D01*
X129381000Y-79688740D02*
X128690120Y-79670960D01*
X128690120Y-79670960D02*
X128479300Y-80219600D01*
X128479300Y-80219600D02*
X128060200Y-80389780D01*
X128060200Y-80389780D02*
X127509020Y-80120540D01*
X127509020Y-80120540D02*
X126990860Y-80648860D01*
X126990860Y-80648860D02*
X127239780Y-81189880D01*
X127239780Y-81189880D02*
X127069600Y-81669940D01*
X127069600Y-81669940D02*
X126520960Y-81769000D01*
X126520960Y-81769000D02*
X126510800Y-82470040D01*
X126510800Y-82470040D02*
X127069600Y-82670700D01*
X127069600Y-82670700D02*
X127209300Y-83069480D01*
X129350520Y-83049160D02*
X129650240Y-82899300D01*
X129650240Y-82899300D02*
X129850900Y-82701180D01*
X129850900Y-82701180D02*
X130000760Y-82299860D01*
X130000760Y-82299860D02*
X130000760Y-81901080D01*
X130000760Y-81901080D02*
X129850900Y-81550560D01*
X129850900Y-81550560D02*
X129398780Y-81200040D01*
X129398780Y-81200040D02*
X128949200Y-81149240D01*
X128949200Y-81149240D02*
X128550420Y-81250840D01*
X128550420Y-81250840D02*
X128149100Y-81598820D01*
X128149100Y-81598820D02*
X127999240Y-82050940D01*
X127999240Y-82050940D02*
X128050040Y-82548780D01*
X128050040Y-82548780D02*
X128298960Y-82851040D01*
X128298960Y-82851040D02*
X128649480Y-83049160D01*
X128649480Y-83049160D02*
X128298960Y-84049920D01*
X129350520Y-83049160D02*
X129749300Y-84049920D01*
X139476000Y-93444000D02*
X136428000Y-93444000D01*
X136428000Y-93444000D02*
X136428000Y-100556000D01*
X136428000Y-100556000D02*
X139476000Y-100556000D01*
X142524000Y-93444000D02*
X143286000Y-93444000D01*
X143286000Y-93444000D02*
X145572000Y-94968000D01*
X145572000Y-94968000D02*
X145572000Y-99032000D01*
X145572000Y-99032000D02*
X143286000Y-100556000D01*
X143286000Y-100556000D02*
X142524000Y-100556000D01*
X132650000Y-96500000D02*
X132650000Y-97500000D01*
X134350000Y-97500000D02*
X134350000Y-96500000D01*
X143650000Y-89000000D02*
X143650000Y-90000000D01*
X145350000Y-90000000D02*
X145350000Y-89000000D01*
X133625000Y-90100000D02*
X133625000Y-88900000D01*
X135375000Y-88900000D02*
X135375000Y-90100000D01*
X138000180Y-89550800D02*
X138000180Y-88849760D01*
X138000180Y-88849760D02*
X138249100Y-88849760D01*
X140799160Y-88849760D02*
X140999820Y-88849760D01*
X140999820Y-88849760D02*
X140999820Y-89550800D01*
X140371333Y-99552381D02*
X140371333Y-99171429D01*
X140599905Y-99628572D02*
X139799905Y-99361905D01*
X140599905Y-99095238D01*
X140599905Y-98828572D02*
X139799905Y-98828572D01*
X140371333Y-98561905D01*
X139799905Y-98295238D01*
X140599905Y-98295238D01*
X140561810Y-97952381D02*
X140599905Y-97838095D01*
X140599905Y-97647619D01*
X140561810Y-97571429D01*
X140523714Y-97533333D01*
X140447524Y-97495238D01*
X140371333Y-97495238D01*
X140295143Y-97533333D01*
X140257048Y-97571429D01*
X140218952Y-97647619D01*
X140180857Y-97800000D01*
X140142762Y-97876191D01*
X140104667Y-97914286D01*
X140028476Y-97952381D01*
X139952286Y-97952381D01*
X139876095Y-97914286D01*
X139838000Y-97876191D01*
X139799905Y-97800000D01*
X139799905Y-97609524D01*
X139838000Y-97495238D01*
X140599905Y-96733333D02*
X140599905Y-97190476D01*
X140599905Y-96961905D02*
X139799905Y-96961905D01*
X139914190Y-97038095D01*
X139990381Y-97114286D01*
X140028476Y-97190476D01*
X140599905Y-95971428D02*
X140599905Y-96428571D01*
X140599905Y-96200000D02*
X139799905Y-96200000D01*
X139914190Y-96276190D01*
X139990381Y-96352381D01*
X140028476Y-96428571D01*
X140599905Y-95209523D02*
X140599905Y-95666666D01*
X140599905Y-95438095D02*
X139799905Y-95438095D01*
X139914190Y-95514285D01*
X139990381Y-95590476D01*
X140028476Y-95666666D01*
X139799905Y-94942856D02*
X139799905Y-94409523D01*
X140599905Y-94752380D01*
X135461905Y-97914285D02*
X135461905Y-98371428D01*
X135461905Y-98142857D02*
X134661905Y-98142857D01*
X134776190Y-98219047D01*
X134852381Y-98295238D01*
X134890476Y-98371428D01*
X134661905Y-97419047D02*
X134661905Y-97342856D01*
X134700000Y-97266666D01*
X134738095Y-97228571D01*
X134814286Y-97190475D01*
X134966667Y-97152380D01*
X135157143Y-97152380D01*
X135309524Y-97190475D01*
X135385714Y-97228571D01*
X135423810Y-97266666D01*
X135461905Y-97342856D01*
X135461905Y-97419047D01*
X135423810Y-97495237D01*
X135385714Y-97533333D01*
X135309524Y-97571428D01*
X135157143Y-97609523D01*
X134966667Y-97609523D01*
X134814286Y-97571428D01*
X134738095Y-97533333D01*
X134700000Y-97495237D01*
X134661905Y-97419047D01*
X134928571Y-96809523D02*
X135728571Y-96809523D01*
X135347619Y-96428570D02*
X135423810Y-96390475D01*
X135461905Y-96314285D01*
X135347619Y-96809523D02*
X135423810Y-96771428D01*
X135461905Y-96695237D01*
X135461905Y-96542856D01*
X135423810Y-96466666D01*
X135347619Y-96428570D01*
X134928571Y-96428570D01*
X135042857Y-95704761D02*
X135042857Y-95971428D01*
X135461905Y-95971428D02*
X134661905Y-95971428D01*
X134661905Y-95590475D01*
X142261905Y-90871428D02*
X142261905Y-90795237D01*
X142300000Y-90719047D01*
X142338095Y-90680952D01*
X142414286Y-90642856D01*
X142566667Y-90604761D01*
X142757143Y-90604761D01*
X142909524Y-90642856D01*
X142985714Y-90680952D01*
X143023810Y-90719047D01*
X143061905Y-90795237D01*
X143061905Y-90871428D01*
X143023810Y-90947618D01*
X142985714Y-90985714D01*
X142909524Y-91023809D01*
X142757143Y-91061904D01*
X142566667Y-91061904D01*
X142414286Y-91023809D01*
X142338095Y-90985714D01*
X142300000Y-90947618D01*
X142261905Y-90871428D01*
X142985714Y-90261904D02*
X143023810Y-90223809D01*
X143061905Y-90261904D01*
X143023810Y-90299999D01*
X142985714Y-90261904D01*
X143061905Y-90261904D01*
X143061905Y-89461904D02*
X143061905Y-89919047D01*
X143061905Y-89690476D02*
X142261905Y-89690476D01*
X142376190Y-89766666D01*
X142452381Y-89842857D01*
X142490476Y-89919047D01*
X142528571Y-89119047D02*
X143328571Y-89119047D01*
X142947619Y-88738094D02*
X143023810Y-88699999D01*
X143061905Y-88623809D01*
X142947619Y-89119047D02*
X143023810Y-89080952D01*
X143061905Y-89004761D01*
X143061905Y-88852380D01*
X143023810Y-88776190D01*
X142947619Y-88738094D01*
X142528571Y-88738094D01*
X142642857Y-88014285D02*
X142642857Y-88280952D01*
X143061905Y-88280952D02*
X142261905Y-88280952D01*
X142261905Y-87899999D01*
X132828571Y-90242857D02*
X133361905Y-90242857D01*
X132523810Y-90433333D02*
X133095238Y-90623809D01*
X133095238Y-90128571D01*
X133285714Y-89823809D02*
X133323810Y-89785714D01*
X133361905Y-89823809D01*
X133323810Y-89861904D01*
X133285714Y-89823809D01*
X133361905Y-89823809D01*
X132561905Y-89519047D02*
X132561905Y-88985714D01*
X133361905Y-89328571D01*
X133361905Y-88680952D02*
X132561905Y-88680952D01*
X133057143Y-88604761D02*
X133361905Y-88376190D01*
X132828571Y-88376190D02*
X133133333Y-88680952D01*
X137433333Y-91138095D02*
X137433333Y-90757143D01*
X137661905Y-91214286D02*
X136861905Y-90947619D01*
X137661905Y-90680952D01*
X136861905Y-90528572D02*
X136861905Y-90071429D01*
X137661905Y-90300000D02*
X136861905Y-90300000D01*
X137623810Y-89842857D02*
X137661905Y-89728571D01*
X137661905Y-89538095D01*
X137623810Y-89461905D01*
X137585714Y-89423809D01*
X137509524Y-89385714D01*
X137433333Y-89385714D01*
X137357143Y-89423809D01*
X137319048Y-89461905D01*
X137280952Y-89538095D01*
X137242857Y-89690476D01*
X137204762Y-89766667D01*
X137166667Y-89804762D01*
X137090476Y-89842857D01*
X137014286Y-89842857D01*
X136938095Y-89804762D01*
X136900000Y-89766667D01*
X136861905Y-89690476D01*
X136861905Y-89500000D01*
X136900000Y-89385714D01*
X137661905Y-89042857D02*
X136861905Y-89042857D01*
X137242857Y-89042857D02*
X137242857Y-88585714D01*
X137661905Y-88585714D02*
X136861905Y-88585714D01*
X137433333Y-88242857D02*
X137433333Y-87861905D01*
X137661905Y-88319048D02*
X136861905Y-88052381D01*
X137661905Y-87785714D01*
M02*
