G04 #@! TF.FileFunction,Copper,L2,Bot,Signal*
%FSLAX46Y46*%
G04 Gerber Fmt 4.6, Leading zero omitted, Abs format (unit mm)*
G04 Created by KiCad (PCBNEW 4.0.4-stable) date Tuesday 22 November 2016 20:45:13*
%MOMM*%
%LPD*%
G01*
G04 APERTURE LIST*
%ADD10C,0.100000*%
%ADD11R,1.200000X3.000000*%
%ADD12R,1.000000X2.000000*%
%ADD13R,1.800000X1.800000*%
%ADD14O,1.800000X1.800000*%
%ADD15R,1.250000X1.500000*%
%ADD16C,1.879600*%
%ADD17R,2.235200X2.235200*%
%ADD18C,0.600000*%
%ADD19C,0.250000*%
%ADD20C,0.254000*%
G04 APERTURE END LIST*
D10*
D11*
X132500000Y-80700000D03*
X134500000Y-80700000D03*
X136500000Y-80700000D03*
X138500000Y-80700000D03*
X140500000Y-80700000D03*
X142500000Y-80700000D03*
X144500000Y-80700000D03*
X146500000Y-80700000D03*
X146500000Y-100400000D03*
X144500000Y-100400000D03*
X142500000Y-100400000D03*
X140500000Y-100400000D03*
X138500000Y-100400000D03*
X136500000Y-100400000D03*
X134500000Y-100400000D03*
X132500000Y-100400000D03*
D12*
X137100000Y-93400000D03*
X138370000Y-93400000D03*
X139640000Y-93400000D03*
X140910000Y-93400000D03*
X142180000Y-93400000D03*
X143450000Y-93400000D03*
X144720000Y-93400000D03*
X145990000Y-93400000D03*
X137100000Y-84400000D03*
X138370000Y-84400000D03*
X139640000Y-84400000D03*
X140910000Y-84400000D03*
X142180000Y-84400000D03*
X143450000Y-84400000D03*
X144720000Y-84400000D03*
X145990000Y-84400000D03*
D13*
X127490000Y-103950000D03*
D14*
X127490000Y-101410000D03*
X127490000Y-98870000D03*
X127490000Y-96330000D03*
X127490000Y-93790000D03*
X127490000Y-91250000D03*
X127490000Y-88710000D03*
X127490000Y-86170000D03*
D13*
X150350000Y-103950000D03*
D14*
X150350000Y-101410000D03*
X150350000Y-98870000D03*
X150350000Y-96330000D03*
X150350000Y-93790000D03*
X150350000Y-91250000D03*
X150350000Y-88710000D03*
X150350000Y-86170000D03*
D15*
X149000000Y-80550000D03*
X149000000Y-83050000D03*
D16*
X133801200Y-106939400D03*
X127298800Y-106939400D03*
X133801200Y-111460600D03*
X127298800Y-111460600D03*
D17*
X144500000Y-104250000D03*
D18*
X137007000Y-86174200D03*
X144330500Y-82800000D03*
X135757700Y-96077500D03*
X145769800Y-86024000D03*
X141149400Y-96248600D03*
X139710400Y-96546000D03*
X141992500Y-94999500D03*
D19*
X137100000Y-86267200D02*
X137100000Y-93400000D01*
X137007000Y-86174200D02*
X137100000Y-86267200D01*
X146500000Y-80700000D02*
X146500000Y-81449900D01*
X147149800Y-81449900D02*
X148049700Y-80550000D01*
X146500000Y-81449900D02*
X147149800Y-81449900D01*
X149000000Y-80550000D02*
X148049700Y-80550000D01*
X137100000Y-86081200D02*
X137100000Y-84400000D01*
X137007000Y-86174200D02*
X137100000Y-86081200D01*
X145149900Y-82800000D02*
X146500000Y-81449900D01*
X144330500Y-82800000D02*
X145149900Y-82800000D01*
X127490000Y-101410000D02*
X128715300Y-101410000D01*
X137017800Y-96077500D02*
X138370000Y-94725300D01*
X135757700Y-96077500D02*
X137017800Y-96077500D01*
X138370000Y-93400000D02*
X138370000Y-94725300D01*
X142500000Y-98574700D02*
X146500000Y-98574700D01*
X142500000Y-100400000D02*
X142500000Y-98574700D01*
X146500000Y-100400000D02*
X146500000Y-98574700D01*
X133574700Y-98260500D02*
X135757700Y-96077500D01*
X133575000Y-103625000D02*
X133574700Y-98260500D01*
X141700000Y-103625000D02*
X142500000Y-102225300D01*
X133575000Y-103625000D02*
X141700000Y-103625000D01*
X142500000Y-100400000D02*
X142500000Y-102225300D01*
X145990000Y-85803800D02*
X145990000Y-84400000D01*
X145769800Y-86024000D02*
X145990000Y-85803800D01*
X148025000Y-83074700D02*
X148049700Y-83050000D01*
X145990000Y-83074700D02*
X148025000Y-83074700D01*
X145990000Y-84400000D02*
X145990000Y-83074700D01*
X149000000Y-83050000D02*
X148049700Y-83050000D01*
X132475000Y-103625000D02*
X133575000Y-103625000D01*
X131375000Y-103625000D02*
X132475000Y-103625000D01*
X131375000Y-103625000D02*
X128715300Y-101410000D01*
X131375000Y-111475000D02*
X131375000Y-103625000D01*
X127298800Y-111460600D02*
X131375000Y-111475000D01*
X131375000Y-111475000D02*
X133801200Y-111460600D01*
X139640000Y-93400000D02*
X139640000Y-92074700D01*
X138370000Y-90804700D02*
X138370000Y-84400000D01*
X139640000Y-92074700D02*
X138370000Y-90804700D01*
X134500000Y-80700000D02*
X134500000Y-82525300D01*
X127490000Y-93790000D02*
X127490000Y-92564700D01*
X138370000Y-84400000D02*
X138370000Y-83074700D01*
X134774700Y-83074700D02*
X138370000Y-83074700D01*
X134774700Y-85739500D02*
X134774700Y-83074700D01*
X127949500Y-92564700D02*
X134774700Y-85739500D01*
X127490000Y-92564700D02*
X127949500Y-92564700D01*
X134774700Y-82800000D02*
X134500000Y-82525300D01*
X134774700Y-83074700D02*
X134774700Y-82800000D01*
X139640000Y-90804700D02*
X139640000Y-84400000D01*
X140910000Y-92074700D02*
X139640000Y-90804700D01*
X140910000Y-92737300D02*
X140910000Y-92074700D01*
X140910000Y-92737300D02*
X140910000Y-93400000D01*
X134500000Y-100400000D02*
X134500000Y-98574700D01*
X140910000Y-93400000D02*
X140910000Y-94612700D01*
X140842600Y-95941800D02*
X140842600Y-95871200D01*
X141149400Y-96248600D02*
X140842600Y-95941800D01*
X140910000Y-95803800D02*
X140842600Y-95871200D01*
X140910000Y-94612700D02*
X140910000Y-95803800D01*
X135699800Y-98574700D02*
X134500000Y-98574700D01*
X138403300Y-95871200D02*
X135699800Y-98574700D01*
X140842600Y-95871200D02*
X138403300Y-95871200D01*
X143450000Y-93400000D02*
X143450000Y-92074700D01*
X143450000Y-93400000D02*
X143450000Y-94725300D01*
X150350000Y-98870000D02*
X149124700Y-98870000D01*
X142180000Y-90804700D02*
X142180000Y-84400000D01*
X143450000Y-92074700D02*
X142180000Y-90804700D01*
X136500000Y-100400000D02*
X136500000Y-102225300D01*
X144093600Y-95368900D02*
X143450000Y-94725300D01*
X144093600Y-96237300D02*
X144093600Y-95368900D01*
X144962000Y-96237300D02*
X144093600Y-96237300D01*
X147594700Y-98870000D02*
X144962000Y-96237300D01*
X149124700Y-98870000D02*
X147594700Y-98870000D01*
X141234800Y-102225300D02*
X136500000Y-102225300D01*
X141425400Y-102034700D02*
X141234800Y-102225300D01*
X141425400Y-98905500D02*
X141425400Y-102034700D01*
X144093600Y-96237300D02*
X141425400Y-98905500D01*
X143450000Y-90804700D02*
X144720000Y-92074700D01*
X143450000Y-84400000D02*
X143450000Y-90804700D01*
X144720000Y-93400000D02*
X144720000Y-92074700D01*
X144720000Y-93400000D02*
X144720000Y-94612700D01*
X146437300Y-96330000D02*
X144720000Y-94612700D01*
X150350000Y-96330000D02*
X146437300Y-96330000D01*
X138500000Y-100400000D02*
X138500000Y-98574700D01*
X139710400Y-97364300D02*
X139710400Y-96546000D01*
X138500000Y-98574700D02*
X139710400Y-97364300D01*
X140910000Y-90804700D02*
X140910000Y-84400000D01*
X142180000Y-92074700D02*
X140910000Y-90804700D01*
X142180000Y-93400000D02*
X142180000Y-92074700D01*
X142180000Y-94812000D02*
X141992500Y-94999500D01*
X142180000Y-93400000D02*
X142180000Y-94812000D01*
X140500000Y-98115000D02*
X140500000Y-100400000D01*
X141992500Y-96622500D02*
X140500000Y-98115000D01*
X141992500Y-94999500D02*
X141992500Y-96622500D01*
X144500000Y-104250000D02*
X144500000Y-100400000D01*
X144720000Y-84400000D02*
X144720000Y-90820000D01*
X145990000Y-92090000D02*
X145990000Y-93400000D01*
X144720000Y-90820000D02*
X145990000Y-92090000D01*
D20*
G36*
X149234519Y-99955409D02*
X149510779Y-100140000D01*
X149234519Y-100324591D01*
X148901773Y-100822581D01*
X148784928Y-101410000D01*
X148901773Y-101997419D01*
X149205859Y-102452516D01*
X148998559Y-102585910D01*
X148853569Y-102798110D01*
X148802560Y-103050000D01*
X148802560Y-104850000D01*
X148846838Y-105085317D01*
X148985910Y-105301441D01*
X149198110Y-105446431D01*
X149355568Y-105478317D01*
X149275441Y-105532499D01*
X149263784Y-105550156D01*
X149247014Y-105563051D01*
X149190537Y-105661101D01*
X149128183Y-105755546D01*
X149124170Y-105776319D01*
X149113611Y-105794651D01*
X149098956Y-105906848D01*
X149077490Y-106017968D01*
X149111202Y-112115000D01*
X144590570Y-112115000D01*
X144593712Y-111727000D01*
X147800000Y-111727000D01*
X147846159Y-111718315D01*
X147888553Y-111691035D01*
X147916994Y-111649410D01*
X147927000Y-111600000D01*
X147927000Y-104900000D01*
X147918315Y-104853841D01*
X147891035Y-104811447D01*
X147849410Y-104783006D01*
X147800000Y-104773000D01*
X146265040Y-104773000D01*
X146265040Y-103132400D01*
X146220762Y-102897083D01*
X146081690Y-102680959D01*
X145869490Y-102535969D01*
X145864705Y-102535000D01*
X146214250Y-102535000D01*
X146373000Y-102376250D01*
X146373000Y-100527000D01*
X146627000Y-100527000D01*
X146627000Y-102376250D01*
X146785750Y-102535000D01*
X147226310Y-102535000D01*
X147459699Y-102438327D01*
X147638327Y-102259698D01*
X147735000Y-102026309D01*
X147735000Y-100685750D01*
X147576250Y-100527000D01*
X146627000Y-100527000D01*
X146373000Y-100527000D01*
X146353000Y-100527000D01*
X146353000Y-100273000D01*
X146373000Y-100273000D01*
X146373000Y-100253000D01*
X146627000Y-100253000D01*
X146627000Y-100273000D01*
X147576250Y-100273000D01*
X147735000Y-100114250D01*
X147735000Y-99630000D01*
X149017088Y-99630000D01*
X149234519Y-99955409D01*
X149234519Y-99955409D01*
G37*
X149234519Y-99955409D02*
X149510779Y-100140000D01*
X149234519Y-100324591D01*
X148901773Y-100822581D01*
X148784928Y-101410000D01*
X148901773Y-101997419D01*
X149205859Y-102452516D01*
X148998559Y-102585910D01*
X148853569Y-102798110D01*
X148802560Y-103050000D01*
X148802560Y-104850000D01*
X148846838Y-105085317D01*
X148985910Y-105301441D01*
X149198110Y-105446431D01*
X149355568Y-105478317D01*
X149275441Y-105532499D01*
X149263784Y-105550156D01*
X149247014Y-105563051D01*
X149190537Y-105661101D01*
X149128183Y-105755546D01*
X149124170Y-105776319D01*
X149113611Y-105794651D01*
X149098956Y-105906848D01*
X149077490Y-106017968D01*
X149111202Y-112115000D01*
X144590570Y-112115000D01*
X144593712Y-111727000D01*
X147800000Y-111727000D01*
X147846159Y-111718315D01*
X147888553Y-111691035D01*
X147916994Y-111649410D01*
X147927000Y-111600000D01*
X147927000Y-104900000D01*
X147918315Y-104853841D01*
X147891035Y-104811447D01*
X147849410Y-104783006D01*
X147800000Y-104773000D01*
X146265040Y-104773000D01*
X146265040Y-103132400D01*
X146220762Y-102897083D01*
X146081690Y-102680959D01*
X145869490Y-102535969D01*
X145864705Y-102535000D01*
X146214250Y-102535000D01*
X146373000Y-102376250D01*
X146373000Y-100527000D01*
X146627000Y-100527000D01*
X146627000Y-102376250D01*
X146785750Y-102535000D01*
X147226310Y-102535000D01*
X147459699Y-102438327D01*
X147638327Y-102259698D01*
X147735000Y-102026309D01*
X147735000Y-100685750D01*
X147576250Y-100527000D01*
X146627000Y-100527000D01*
X146373000Y-100527000D01*
X146353000Y-100527000D01*
X146353000Y-100273000D01*
X146373000Y-100273000D01*
X146373000Y-100253000D01*
X146627000Y-100253000D01*
X146627000Y-100273000D01*
X147576250Y-100273000D01*
X147735000Y-100114250D01*
X147735000Y-99630000D01*
X149017088Y-99630000D01*
X149234519Y-99955409D01*
G36*
X135952560Y-85400000D02*
X135996838Y-85635317D01*
X136131478Y-85844553D01*
X136072162Y-85987401D01*
X136071838Y-86359367D01*
X136213883Y-86703143D01*
X136340000Y-86829480D01*
X136340000Y-91812721D01*
X136148559Y-91935910D01*
X136003569Y-92148110D01*
X135952560Y-92400000D01*
X135952560Y-94400000D01*
X135996838Y-94635317D01*
X136135910Y-94851441D01*
X136348110Y-94996431D01*
X136600000Y-95047440D01*
X137600000Y-95047440D01*
X137719458Y-95024962D01*
X137743691Y-95035000D01*
X138084250Y-95035000D01*
X138243000Y-94876250D01*
X138243000Y-94421925D01*
X138247440Y-94400000D01*
X138247440Y-93253000D01*
X138492560Y-93253000D01*
X138492560Y-94400000D01*
X138497000Y-94423597D01*
X138497000Y-94876250D01*
X138655750Y-95035000D01*
X138996309Y-95035000D01*
X139023320Y-95023812D01*
X139140000Y-95047440D01*
X140140000Y-95047440D01*
X140150000Y-95045558D01*
X140150000Y-95111200D01*
X138403300Y-95111200D01*
X138112460Y-95169052D01*
X137865899Y-95333799D01*
X135384998Y-97814700D01*
X134500000Y-97814700D01*
X134209161Y-97872552D01*
X133962599Y-98037299D01*
X133807085Y-98270043D01*
X133664683Y-98296838D01*
X133498523Y-98403759D01*
X133351890Y-98303569D01*
X133100000Y-98252560D01*
X131900000Y-98252560D01*
X131664683Y-98296838D01*
X131448559Y-98435910D01*
X131303569Y-98648110D01*
X131252560Y-98900000D01*
X131252560Y-101900000D01*
X131296838Y-102135317D01*
X131435910Y-102351441D01*
X131648110Y-102496431D01*
X131900000Y-102547440D01*
X133100000Y-102547440D01*
X133335317Y-102503162D01*
X133501477Y-102396241D01*
X133648110Y-102496431D01*
X133900000Y-102547440D01*
X135100000Y-102547440D01*
X135335317Y-102503162D01*
X135501477Y-102396241D01*
X135648110Y-102496431D01*
X135806055Y-102528416D01*
X135962599Y-102762701D01*
X136209161Y-102927448D01*
X136500000Y-102985300D01*
X141234800Y-102985300D01*
X141525639Y-102927448D01*
X141772201Y-102762701D01*
X141962801Y-102572101D01*
X141987591Y-102535000D01*
X142214250Y-102535000D01*
X142373000Y-102376250D01*
X142373000Y-100527000D01*
X142353000Y-100527000D01*
X142353000Y-100273000D01*
X142373000Y-100273000D01*
X142373000Y-100253000D01*
X142627000Y-100253000D01*
X142627000Y-100273000D01*
X142647000Y-100273000D01*
X142647000Y-100527000D01*
X142627000Y-100527000D01*
X142627000Y-102376250D01*
X142785750Y-102535000D01*
X143138129Y-102535000D01*
X142930959Y-102668310D01*
X142785969Y-102880510D01*
X142734960Y-103132400D01*
X142734960Y-104773000D01*
X135300000Y-104773000D01*
X135253841Y-104781685D01*
X135211447Y-104808965D01*
X135183006Y-104850590D01*
X135173000Y-104900000D01*
X135173000Y-106135569D01*
X135137029Y-106048513D01*
X134694417Y-105605128D01*
X134115821Y-105364874D01*
X133489327Y-105364327D01*
X132910313Y-105603571D01*
X132466928Y-106046183D01*
X132226674Y-106624779D01*
X132226127Y-107251273D01*
X132465371Y-107830287D01*
X132907983Y-108273672D01*
X133486579Y-108513926D01*
X134113073Y-108514473D01*
X134692087Y-108275229D01*
X135135472Y-107832617D01*
X135173000Y-107742240D01*
X135173000Y-110627883D01*
X135170780Y-110622523D01*
X134910168Y-110531237D01*
X133980805Y-111460600D01*
X133994948Y-111474743D01*
X133815343Y-111654348D01*
X133801200Y-111640205D01*
X133787058Y-111654348D01*
X133607453Y-111474743D01*
X133621595Y-111460600D01*
X132692232Y-110531237D01*
X132431620Y-110622523D01*
X132215155Y-111210433D01*
X132240151Y-111836428D01*
X132349280Y-112099890D01*
X128745383Y-112089540D01*
X128884845Y-111710767D01*
X128859849Y-111084772D01*
X128668380Y-110622523D01*
X128407768Y-110531237D01*
X127478405Y-111460600D01*
X127492548Y-111474743D01*
X127312943Y-111654348D01*
X127298800Y-111640205D01*
X127284658Y-111654348D01*
X127105053Y-111474743D01*
X127119195Y-111460600D01*
X127105053Y-111446458D01*
X127284658Y-111266853D01*
X127298800Y-111280995D01*
X128228163Y-110351632D01*
X132871837Y-110351632D01*
X133801200Y-111280995D01*
X134730563Y-110351632D01*
X134639277Y-110091020D01*
X134051367Y-109874555D01*
X133425372Y-109899551D01*
X132963123Y-110091020D01*
X132871837Y-110351632D01*
X128228163Y-110351632D01*
X128136877Y-110091020D01*
X127548967Y-109874555D01*
X126922972Y-109899551D01*
X126686051Y-109997687D01*
X126686772Y-108390432D01*
X126984179Y-108513926D01*
X127610673Y-108514473D01*
X128189687Y-108275229D01*
X128633072Y-107832617D01*
X128873326Y-107254021D01*
X128873873Y-106627527D01*
X128634629Y-106048513D01*
X128192017Y-105605128D01*
X127932675Y-105497440D01*
X128390000Y-105497440D01*
X128625317Y-105453162D01*
X128841441Y-105314090D01*
X128986431Y-105101890D01*
X129037440Y-104850000D01*
X129037440Y-103050000D01*
X128993162Y-102814683D01*
X128854090Y-102598559D01*
X128641890Y-102453569D01*
X128586090Y-102442269D01*
X128802240Y-102206417D01*
X128981036Y-101774740D01*
X128860378Y-101537000D01*
X127617000Y-101537000D01*
X127617000Y-101557000D01*
X127363000Y-101557000D01*
X127363000Y-101537000D01*
X127343000Y-101537000D01*
X127343000Y-101283000D01*
X127363000Y-101283000D01*
X127363000Y-101263000D01*
X127617000Y-101263000D01*
X127617000Y-101283000D01*
X128860378Y-101283000D01*
X128981036Y-101045260D01*
X128802240Y-100613583D01*
X128397576Y-100172034D01*
X128329075Y-100140097D01*
X128605481Y-99955409D01*
X128938227Y-99457419D01*
X129055072Y-98870000D01*
X128938227Y-98282581D01*
X128605481Y-97784591D01*
X128329221Y-97600000D01*
X128605481Y-97415409D01*
X128938227Y-96917419D01*
X129055072Y-96330000D01*
X128938227Y-95742581D01*
X128605481Y-95244591D01*
X128329221Y-95060000D01*
X128605481Y-94875409D01*
X128938227Y-94377419D01*
X129055072Y-93790000D01*
X128938227Y-93202581D01*
X128717205Y-92871797D01*
X135312101Y-86276901D01*
X135476848Y-86030340D01*
X135512433Y-85851441D01*
X135534700Y-85739500D01*
X135534700Y-83834700D01*
X135952560Y-83834700D01*
X135952560Y-85400000D01*
X135952560Y-85400000D01*
G37*
X135952560Y-85400000D02*
X135996838Y-85635317D01*
X136131478Y-85844553D01*
X136072162Y-85987401D01*
X136071838Y-86359367D01*
X136213883Y-86703143D01*
X136340000Y-86829480D01*
X136340000Y-91812721D01*
X136148559Y-91935910D01*
X136003569Y-92148110D01*
X135952560Y-92400000D01*
X135952560Y-94400000D01*
X135996838Y-94635317D01*
X136135910Y-94851441D01*
X136348110Y-94996431D01*
X136600000Y-95047440D01*
X137600000Y-95047440D01*
X137719458Y-95024962D01*
X137743691Y-95035000D01*
X138084250Y-95035000D01*
X138243000Y-94876250D01*
X138243000Y-94421925D01*
X138247440Y-94400000D01*
X138247440Y-93253000D01*
X138492560Y-93253000D01*
X138492560Y-94400000D01*
X138497000Y-94423597D01*
X138497000Y-94876250D01*
X138655750Y-95035000D01*
X138996309Y-95035000D01*
X139023320Y-95023812D01*
X139140000Y-95047440D01*
X140140000Y-95047440D01*
X140150000Y-95045558D01*
X140150000Y-95111200D01*
X138403300Y-95111200D01*
X138112460Y-95169052D01*
X137865899Y-95333799D01*
X135384998Y-97814700D01*
X134500000Y-97814700D01*
X134209161Y-97872552D01*
X133962599Y-98037299D01*
X133807085Y-98270043D01*
X133664683Y-98296838D01*
X133498523Y-98403759D01*
X133351890Y-98303569D01*
X133100000Y-98252560D01*
X131900000Y-98252560D01*
X131664683Y-98296838D01*
X131448559Y-98435910D01*
X131303569Y-98648110D01*
X131252560Y-98900000D01*
X131252560Y-101900000D01*
X131296838Y-102135317D01*
X131435910Y-102351441D01*
X131648110Y-102496431D01*
X131900000Y-102547440D01*
X133100000Y-102547440D01*
X133335317Y-102503162D01*
X133501477Y-102396241D01*
X133648110Y-102496431D01*
X133900000Y-102547440D01*
X135100000Y-102547440D01*
X135335317Y-102503162D01*
X135501477Y-102396241D01*
X135648110Y-102496431D01*
X135806055Y-102528416D01*
X135962599Y-102762701D01*
X136209161Y-102927448D01*
X136500000Y-102985300D01*
X141234800Y-102985300D01*
X141525639Y-102927448D01*
X141772201Y-102762701D01*
X141962801Y-102572101D01*
X141987591Y-102535000D01*
X142214250Y-102535000D01*
X142373000Y-102376250D01*
X142373000Y-100527000D01*
X142353000Y-100527000D01*
X142353000Y-100273000D01*
X142373000Y-100273000D01*
X142373000Y-100253000D01*
X142627000Y-100253000D01*
X142627000Y-100273000D01*
X142647000Y-100273000D01*
X142647000Y-100527000D01*
X142627000Y-100527000D01*
X142627000Y-102376250D01*
X142785750Y-102535000D01*
X143138129Y-102535000D01*
X142930959Y-102668310D01*
X142785969Y-102880510D01*
X142734960Y-103132400D01*
X142734960Y-104773000D01*
X135300000Y-104773000D01*
X135253841Y-104781685D01*
X135211447Y-104808965D01*
X135183006Y-104850590D01*
X135173000Y-104900000D01*
X135173000Y-106135569D01*
X135137029Y-106048513D01*
X134694417Y-105605128D01*
X134115821Y-105364874D01*
X133489327Y-105364327D01*
X132910313Y-105603571D01*
X132466928Y-106046183D01*
X132226674Y-106624779D01*
X132226127Y-107251273D01*
X132465371Y-107830287D01*
X132907983Y-108273672D01*
X133486579Y-108513926D01*
X134113073Y-108514473D01*
X134692087Y-108275229D01*
X135135472Y-107832617D01*
X135173000Y-107742240D01*
X135173000Y-110627883D01*
X135170780Y-110622523D01*
X134910168Y-110531237D01*
X133980805Y-111460600D01*
X133994948Y-111474743D01*
X133815343Y-111654348D01*
X133801200Y-111640205D01*
X133787058Y-111654348D01*
X133607453Y-111474743D01*
X133621595Y-111460600D01*
X132692232Y-110531237D01*
X132431620Y-110622523D01*
X132215155Y-111210433D01*
X132240151Y-111836428D01*
X132349280Y-112099890D01*
X128745383Y-112089540D01*
X128884845Y-111710767D01*
X128859849Y-111084772D01*
X128668380Y-110622523D01*
X128407768Y-110531237D01*
X127478405Y-111460600D01*
X127492548Y-111474743D01*
X127312943Y-111654348D01*
X127298800Y-111640205D01*
X127284658Y-111654348D01*
X127105053Y-111474743D01*
X127119195Y-111460600D01*
X127105053Y-111446458D01*
X127284658Y-111266853D01*
X127298800Y-111280995D01*
X128228163Y-110351632D01*
X132871837Y-110351632D01*
X133801200Y-111280995D01*
X134730563Y-110351632D01*
X134639277Y-110091020D01*
X134051367Y-109874555D01*
X133425372Y-109899551D01*
X132963123Y-110091020D01*
X132871837Y-110351632D01*
X128228163Y-110351632D01*
X128136877Y-110091020D01*
X127548967Y-109874555D01*
X126922972Y-109899551D01*
X126686051Y-109997687D01*
X126686772Y-108390432D01*
X126984179Y-108513926D01*
X127610673Y-108514473D01*
X128189687Y-108275229D01*
X128633072Y-107832617D01*
X128873326Y-107254021D01*
X128873873Y-106627527D01*
X128634629Y-106048513D01*
X128192017Y-105605128D01*
X127932675Y-105497440D01*
X128390000Y-105497440D01*
X128625317Y-105453162D01*
X128841441Y-105314090D01*
X128986431Y-105101890D01*
X129037440Y-104850000D01*
X129037440Y-103050000D01*
X128993162Y-102814683D01*
X128854090Y-102598559D01*
X128641890Y-102453569D01*
X128586090Y-102442269D01*
X128802240Y-102206417D01*
X128981036Y-101774740D01*
X128860378Y-101537000D01*
X127617000Y-101537000D01*
X127617000Y-101557000D01*
X127363000Y-101557000D01*
X127363000Y-101537000D01*
X127343000Y-101537000D01*
X127343000Y-101283000D01*
X127363000Y-101283000D01*
X127363000Y-101263000D01*
X127617000Y-101263000D01*
X127617000Y-101283000D01*
X128860378Y-101283000D01*
X128981036Y-101045260D01*
X128802240Y-100613583D01*
X128397576Y-100172034D01*
X128329075Y-100140097D01*
X128605481Y-99955409D01*
X128938227Y-99457419D01*
X129055072Y-98870000D01*
X128938227Y-98282581D01*
X128605481Y-97784591D01*
X128329221Y-97600000D01*
X128605481Y-97415409D01*
X128938227Y-96917419D01*
X129055072Y-96330000D01*
X128938227Y-95742581D01*
X128605481Y-95244591D01*
X128329221Y-95060000D01*
X128605481Y-94875409D01*
X128938227Y-94377419D01*
X129055072Y-93790000D01*
X128938227Y-93202581D01*
X128717205Y-92871797D01*
X135312101Y-86276901D01*
X135476848Y-86030340D01*
X135512433Y-85851441D01*
X135534700Y-85739500D01*
X135534700Y-83834700D01*
X135952560Y-83834700D01*
X135952560Y-85400000D01*
G36*
X150904321Y-81833700D02*
X150996126Y-82542729D01*
X150998593Y-84772627D01*
X150967491Y-84751845D01*
X150380072Y-84635000D01*
X150319928Y-84635000D01*
X149732509Y-84751845D01*
X149234519Y-85084591D01*
X148901773Y-85582581D01*
X148784928Y-86170000D01*
X148901773Y-86757419D01*
X149234519Y-87255409D01*
X149510779Y-87440000D01*
X149234519Y-87624591D01*
X148901773Y-88122581D01*
X148784928Y-88710000D01*
X148901773Y-89297419D01*
X149234519Y-89795409D01*
X149510779Y-89980000D01*
X149234519Y-90164591D01*
X148901773Y-90662581D01*
X148784928Y-91250000D01*
X148901773Y-91837419D01*
X149234519Y-92335409D01*
X149510779Y-92520000D01*
X149234519Y-92704591D01*
X148901773Y-93202581D01*
X148784928Y-93790000D01*
X148901773Y-94377419D01*
X149234519Y-94875409D01*
X149510779Y-95060000D01*
X149234519Y-95244591D01*
X149017088Y-95570000D01*
X146752102Y-95570000D01*
X146229542Y-95047440D01*
X146490000Y-95047440D01*
X146725317Y-95003162D01*
X146941441Y-94864090D01*
X147086431Y-94651890D01*
X147137440Y-94400000D01*
X147137440Y-92400000D01*
X147093162Y-92164683D01*
X146954090Y-91948559D01*
X146741890Y-91803569D01*
X146687771Y-91792610D01*
X146527401Y-91552599D01*
X145480000Y-90505198D01*
X145480000Y-86035000D01*
X145704250Y-86035000D01*
X145863000Y-85876250D01*
X145863000Y-85421925D01*
X145867440Y-85400000D01*
X145867440Y-84527000D01*
X146117000Y-84527000D01*
X146117000Y-85876250D01*
X146275750Y-86035000D01*
X146616309Y-86035000D01*
X146849698Y-85938327D01*
X147028327Y-85759699D01*
X147125000Y-85526310D01*
X147125000Y-84685750D01*
X146966250Y-84527000D01*
X146117000Y-84527000D01*
X145867440Y-84527000D01*
X145867440Y-84253000D01*
X146117000Y-84253000D01*
X146117000Y-84273000D01*
X146966250Y-84273000D01*
X147125000Y-84114250D01*
X147125000Y-83335750D01*
X147740000Y-83335750D01*
X147740000Y-83926309D01*
X147836673Y-84159698D01*
X148015301Y-84338327D01*
X148248690Y-84435000D01*
X148714250Y-84435000D01*
X148873000Y-84276250D01*
X148873000Y-83177000D01*
X149127000Y-83177000D01*
X149127000Y-84276250D01*
X149285750Y-84435000D01*
X149751310Y-84435000D01*
X149984699Y-84338327D01*
X150163327Y-84159698D01*
X150260000Y-83926309D01*
X150260000Y-83335750D01*
X150101250Y-83177000D01*
X149127000Y-83177000D01*
X148873000Y-83177000D01*
X147898750Y-83177000D01*
X147740000Y-83335750D01*
X147125000Y-83335750D01*
X147125000Y-83273690D01*
X147028327Y-83040301D01*
X146849698Y-82861673D01*
X146815337Y-82847440D01*
X147100000Y-82847440D01*
X147335317Y-82803162D01*
X147551441Y-82664090D01*
X147696431Y-82451890D01*
X147740000Y-82236740D01*
X147740000Y-82764250D01*
X147898750Y-82923000D01*
X148873000Y-82923000D01*
X148873000Y-82903000D01*
X149127000Y-82903000D01*
X149127000Y-82923000D01*
X150101250Y-82923000D01*
X150260000Y-82764250D01*
X150260000Y-82173691D01*
X150163327Y-81940302D01*
X150022090Y-81799064D01*
X150076441Y-81764090D01*
X150221431Y-81551890D01*
X150272440Y-81300000D01*
X150272440Y-81043849D01*
X150904321Y-81833700D01*
X150904321Y-81833700D01*
G37*
X150904321Y-81833700D02*
X150996126Y-82542729D01*
X150998593Y-84772627D01*
X150967491Y-84751845D01*
X150380072Y-84635000D01*
X150319928Y-84635000D01*
X149732509Y-84751845D01*
X149234519Y-85084591D01*
X148901773Y-85582581D01*
X148784928Y-86170000D01*
X148901773Y-86757419D01*
X149234519Y-87255409D01*
X149510779Y-87440000D01*
X149234519Y-87624591D01*
X148901773Y-88122581D01*
X148784928Y-88710000D01*
X148901773Y-89297419D01*
X149234519Y-89795409D01*
X149510779Y-89980000D01*
X149234519Y-90164591D01*
X148901773Y-90662581D01*
X148784928Y-91250000D01*
X148901773Y-91837419D01*
X149234519Y-92335409D01*
X149510779Y-92520000D01*
X149234519Y-92704591D01*
X148901773Y-93202581D01*
X148784928Y-93790000D01*
X148901773Y-94377419D01*
X149234519Y-94875409D01*
X149510779Y-95060000D01*
X149234519Y-95244591D01*
X149017088Y-95570000D01*
X146752102Y-95570000D01*
X146229542Y-95047440D01*
X146490000Y-95047440D01*
X146725317Y-95003162D01*
X146941441Y-94864090D01*
X147086431Y-94651890D01*
X147137440Y-94400000D01*
X147137440Y-92400000D01*
X147093162Y-92164683D01*
X146954090Y-91948559D01*
X146741890Y-91803569D01*
X146687771Y-91792610D01*
X146527401Y-91552599D01*
X145480000Y-90505198D01*
X145480000Y-86035000D01*
X145704250Y-86035000D01*
X145863000Y-85876250D01*
X145863000Y-85421925D01*
X145867440Y-85400000D01*
X145867440Y-84527000D01*
X146117000Y-84527000D01*
X146117000Y-85876250D01*
X146275750Y-86035000D01*
X146616309Y-86035000D01*
X146849698Y-85938327D01*
X147028327Y-85759699D01*
X147125000Y-85526310D01*
X147125000Y-84685750D01*
X146966250Y-84527000D01*
X146117000Y-84527000D01*
X145867440Y-84527000D01*
X145867440Y-84253000D01*
X146117000Y-84253000D01*
X146117000Y-84273000D01*
X146966250Y-84273000D01*
X147125000Y-84114250D01*
X147125000Y-83335750D01*
X147740000Y-83335750D01*
X147740000Y-83926309D01*
X147836673Y-84159698D01*
X148015301Y-84338327D01*
X148248690Y-84435000D01*
X148714250Y-84435000D01*
X148873000Y-84276250D01*
X148873000Y-83177000D01*
X149127000Y-83177000D01*
X149127000Y-84276250D01*
X149285750Y-84435000D01*
X149751310Y-84435000D01*
X149984699Y-84338327D01*
X150163327Y-84159698D01*
X150260000Y-83926309D01*
X150260000Y-83335750D01*
X150101250Y-83177000D01*
X149127000Y-83177000D01*
X148873000Y-83177000D01*
X147898750Y-83177000D01*
X147740000Y-83335750D01*
X147125000Y-83335750D01*
X147125000Y-83273690D01*
X147028327Y-83040301D01*
X146849698Y-82861673D01*
X146815337Y-82847440D01*
X147100000Y-82847440D01*
X147335317Y-82803162D01*
X147551441Y-82664090D01*
X147696431Y-82451890D01*
X147740000Y-82236740D01*
X147740000Y-82764250D01*
X147898750Y-82923000D01*
X148873000Y-82923000D01*
X148873000Y-82903000D01*
X149127000Y-82903000D01*
X149127000Y-82923000D01*
X150101250Y-82923000D01*
X150260000Y-82764250D01*
X150260000Y-82173691D01*
X150163327Y-81940302D01*
X150022090Y-81799064D01*
X150076441Y-81764090D01*
X150221431Y-81551890D01*
X150272440Y-81300000D01*
X150272440Y-81043849D01*
X150904321Y-81833700D01*
M02*
