M48
;DRILL file {KiCad 4.0.4-stable} date Tuesday 22 November 2016 20:45:15
;FORMAT={-:-/ absolute / metric / decimal}
FMAT,2
METRIC,TZ
T1C0.250
T2C1.016
%
G90
G05
M71
T1
X135.758Y-96.078
X137.007Y-86.174
X139.71Y-96.546
X141.149Y-96.249
X141.993Y-94.999
X144.331Y-82.8
X145.77Y-86.024
T2
X127.299Y-106.939
X127.299Y-111.461
X127.49Y-86.17
X127.49Y-88.71
X127.49Y-91.25
X127.49Y-93.79
X127.49Y-96.33
X127.49Y-98.87
X127.49Y-101.41
X127.49Y-103.95
X133.801Y-106.939
X133.801Y-111.461
X144.5Y-104.25
X150.35Y-86.17
X150.35Y-88.71
X150.35Y-91.25
X150.35Y-93.79
X150.35Y-96.33
X150.35Y-98.87
X150.35Y-101.41
X150.35Y-103.95
T0
M30
