G04 #@! TF.FileFunction,Legend,Bot*
%FSLAX46Y46*%
G04 Gerber Fmt 4.6, Leading zero omitted, Abs format (unit mm)*
G04 Created by KiCad (PCBNEW 4.0.4-stable) date Tuesday 22 November 2016 20:45:13*
%MOMM*%
%LPD*%
G01*
G04 APERTURE LIST*
%ADD10C,0.100000*%
%ADD11C,0.150000*%
%ADD12C,0.500000*%
%ADD13C,0.127000*%
%ADD14C,0.076200*%
G04 APERTURE END LIST*
D10*
D11*
X147500000Y-78700000D02*
X131500000Y-78700000D01*
X147500000Y-102400000D02*
X147500000Y-78700000D01*
X131500000Y-102400000D02*
X147500000Y-102400000D01*
X131500000Y-78700000D02*
X131500000Y-102400000D01*
X147500000Y-111400000D02*
X147500000Y-93400000D01*
X135500000Y-93400000D02*
X135500000Y-111400000D01*
X135500000Y-111400000D02*
X147500000Y-111400000D01*
X135500000Y-111400000D02*
X147500000Y-111400000D01*
X135500000Y-84400000D02*
X135500000Y-111400000D01*
X147500000Y-111400000D02*
X147500000Y-84400000D01*
X135500000Y-106400000D02*
X147500000Y-106400000D01*
D12*
X136250000Y-110100000D02*
X146250000Y-110100000D01*
D11*
X148150000Y-82300000D02*
X148150000Y-81300000D01*
X149850000Y-81300000D02*
X149850000Y-82300000D01*
D13*
X133090000Y-108692000D02*
X132709000Y-109581000D01*
X133090000Y-110470000D02*
X133090000Y-109708000D01*
X133090000Y-107930000D02*
X133090000Y-108692000D01*
X133090000Y-106152000D02*
X128010000Y-106152000D01*
X128010000Y-106152000D02*
X127502000Y-106660000D01*
X127502000Y-106660000D02*
X127502000Y-111740000D01*
X127502000Y-111740000D02*
X128010000Y-112248000D01*
X128010000Y-112248000D02*
X133090000Y-112248000D01*
X133090000Y-112248000D02*
X133598000Y-111740000D01*
X133598000Y-111740000D02*
X133598000Y-106660000D01*
X133598000Y-106660000D02*
X133090000Y-106152000D01*
X132328000Y-109200000D02*
G75*
G03X132328000Y-109200000I-1778000J0D01*
G01*
D11*
X146050000Y-105800000D02*
X146050000Y-104250000D01*
X142950000Y-104250000D02*
X142950000Y-105800000D01*
X142950000Y-105800000D02*
X146050000Y-105800000D01*
X143230000Y-102980000D02*
X145770000Y-102980000D01*
X146590476Y-98461905D02*
X146857143Y-98080952D01*
X147047619Y-98461905D02*
X147047619Y-97661905D01*
X146742857Y-97661905D01*
X146666666Y-97700000D01*
X146628571Y-97738095D01*
X146590476Y-97814286D01*
X146590476Y-97928571D01*
X146628571Y-98004762D01*
X146666666Y-98042857D01*
X146742857Y-98080952D01*
X147047619Y-98080952D01*
X145980952Y-98042857D02*
X146247619Y-98042857D01*
X146247619Y-98461905D02*
X146247619Y-97661905D01*
X145866666Y-97661905D01*
X145561905Y-98461905D02*
X145561905Y-97661905D01*
X145295238Y-98233333D01*
X145028571Y-97661905D01*
X145028571Y-98461905D01*
X144304762Y-97661905D02*
X144457143Y-97661905D01*
X144533333Y-97700000D01*
X144571428Y-97738095D01*
X144647619Y-97852381D01*
X144685714Y-98004762D01*
X144685714Y-98309524D01*
X144647619Y-98385714D01*
X144609524Y-98423810D01*
X144533333Y-98461905D01*
X144380952Y-98461905D01*
X144304762Y-98423810D01*
X144266666Y-98385714D01*
X144228571Y-98309524D01*
X144228571Y-98119048D01*
X144266666Y-98042857D01*
X144304762Y-98004762D01*
X144380952Y-97966667D01*
X144533333Y-97966667D01*
X144609524Y-98004762D01*
X144647619Y-98042857D01*
X144685714Y-98119048D01*
X143847619Y-98461905D02*
X143695238Y-98461905D01*
X143619047Y-98423810D01*
X143580952Y-98385714D01*
X143504761Y-98271429D01*
X143466666Y-98119048D01*
X143466666Y-97814286D01*
X143504761Y-97738095D01*
X143542857Y-97700000D01*
X143619047Y-97661905D01*
X143771428Y-97661905D01*
X143847619Y-97700000D01*
X143885714Y-97738095D01*
X143923809Y-97814286D01*
X143923809Y-98004762D01*
X143885714Y-98080952D01*
X143847619Y-98119048D01*
X143771428Y-98157143D01*
X143619047Y-98157143D01*
X143542857Y-98119048D01*
X143504761Y-98080952D01*
X143466666Y-98004762D01*
X143123809Y-98461905D02*
X143123809Y-97661905D01*
X143123809Y-98042857D02*
X142666666Y-98042857D01*
X142666666Y-98461905D02*
X142666666Y-97661905D01*
X142361904Y-97661905D02*
X142171428Y-98461905D01*
X142019047Y-97890476D01*
X141866666Y-98461905D01*
X141676190Y-97661905D01*
X144219048Y-95861905D02*
X144219048Y-95061905D01*
X143761905Y-95861905D01*
X143761905Y-95061905D01*
X142923810Y-95861905D02*
X143190477Y-95480952D01*
X143380953Y-95861905D02*
X143380953Y-95061905D01*
X143076191Y-95061905D01*
X143000000Y-95100000D01*
X142961905Y-95138095D01*
X142923810Y-95214286D01*
X142923810Y-95328571D01*
X142961905Y-95404762D01*
X143000000Y-95442857D01*
X143076191Y-95480952D01*
X143380953Y-95480952D01*
X142314286Y-95442857D02*
X142580953Y-95442857D01*
X142580953Y-95861905D02*
X142580953Y-95061905D01*
X142200000Y-95061905D01*
X141933334Y-95138095D02*
X141895239Y-95100000D01*
X141819048Y-95061905D01*
X141628572Y-95061905D01*
X141552382Y-95100000D01*
X141514286Y-95138095D01*
X141476191Y-95214286D01*
X141476191Y-95290476D01*
X141514286Y-95404762D01*
X141971429Y-95861905D01*
X141476191Y-95861905D01*
X140790477Y-95328571D02*
X140790477Y-95861905D01*
X140980953Y-95023810D02*
X141171429Y-95595238D01*
X140676191Y-95595238D01*
X139990476Y-95861905D02*
X140371429Y-95861905D01*
X140371429Y-95061905D01*
X139571429Y-95061905D02*
X139495238Y-95061905D01*
X139419048Y-95100000D01*
X139380953Y-95138095D01*
X139342857Y-95214286D01*
X139304762Y-95366667D01*
X139304762Y-95557143D01*
X139342857Y-95709524D01*
X139380953Y-95785714D01*
X139419048Y-95823810D01*
X139495238Y-95861905D01*
X139571429Y-95861905D01*
X139647619Y-95823810D01*
X139685715Y-95785714D01*
X139723810Y-95709524D01*
X139761905Y-95557143D01*
X139761905Y-95366667D01*
X139723810Y-95214286D01*
X139685715Y-95138095D01*
X139647619Y-95100000D01*
X139571429Y-95061905D01*
X138542857Y-95861905D02*
X139000000Y-95861905D01*
X138771429Y-95861905D02*
X138771429Y-95061905D01*
X138847619Y-95176190D01*
X138923810Y-95252381D01*
X139000000Y-95290476D01*
X146947619Y-86861905D02*
X146947619Y-86061905D01*
X146490476Y-86861905D01*
X146490476Y-86061905D01*
X145652381Y-86861905D02*
X145919048Y-86480952D01*
X146109524Y-86861905D02*
X146109524Y-86061905D01*
X145804762Y-86061905D01*
X145728571Y-86100000D01*
X145690476Y-86138095D01*
X145652381Y-86214286D01*
X145652381Y-86328571D01*
X145690476Y-86404762D01*
X145728571Y-86442857D01*
X145804762Y-86480952D01*
X146109524Y-86480952D01*
X145042857Y-86442857D02*
X145309524Y-86442857D01*
X145309524Y-86861905D02*
X145309524Y-86061905D01*
X144928571Y-86061905D01*
X144661905Y-86138095D02*
X144623810Y-86100000D01*
X144547619Y-86061905D01*
X144357143Y-86061905D01*
X144280953Y-86100000D01*
X144242857Y-86138095D01*
X144204762Y-86214286D01*
X144204762Y-86290476D01*
X144242857Y-86404762D01*
X144700000Y-86861905D01*
X144204762Y-86861905D01*
X143519048Y-86328571D02*
X143519048Y-86861905D01*
X143709524Y-86023810D02*
X143900000Y-86595238D01*
X143404762Y-86595238D01*
X142719047Y-86861905D02*
X143100000Y-86861905D01*
X143100000Y-86061905D01*
X142300000Y-86061905D02*
X142223809Y-86061905D01*
X142147619Y-86100000D01*
X142109524Y-86138095D01*
X142071428Y-86214286D01*
X142033333Y-86366667D01*
X142033333Y-86557143D01*
X142071428Y-86709524D01*
X142109524Y-86785714D01*
X142147619Y-86823810D01*
X142223809Y-86861905D01*
X142300000Y-86861905D01*
X142376190Y-86823810D01*
X142414286Y-86785714D01*
X142452381Y-86709524D01*
X142490476Y-86557143D01*
X142490476Y-86366667D01*
X142452381Y-86214286D01*
X142414286Y-86138095D01*
X142376190Y-86100000D01*
X142300000Y-86061905D01*
X141271428Y-86861905D02*
X141728571Y-86861905D01*
X141500000Y-86861905D02*
X141500000Y-86061905D01*
X141576190Y-86176190D01*
X141652381Y-86252381D01*
X141728571Y-86290476D01*
X141119047Y-86938095D02*
X140509523Y-86938095D01*
X140319047Y-86861905D02*
X140319047Y-86061905D01*
X140014285Y-86061905D01*
X139938094Y-86100000D01*
X139899999Y-86138095D01*
X139861904Y-86214286D01*
X139861904Y-86328571D01*
X139899999Y-86404762D01*
X139938094Y-86442857D01*
X140014285Y-86480952D01*
X140319047Y-86480952D01*
X139557142Y-86633333D02*
X139176190Y-86633333D01*
X139633333Y-86861905D02*
X139366666Y-86061905D01*
X139099999Y-86861905D01*
X138833333Y-86557143D02*
X138223809Y-86557143D01*
X138528571Y-86861905D02*
X138528571Y-86252381D01*
X137461904Y-86861905D02*
X137842857Y-86861905D01*
X137842857Y-86061905D01*
X137195238Y-86861905D02*
X137195238Y-86061905D01*
X136738095Y-86861905D01*
X136738095Y-86061905D01*
X136395238Y-86633333D02*
X136014286Y-86633333D01*
X136471429Y-86861905D02*
X136204762Y-86061905D01*
X135938095Y-86861905D01*
X150528571Y-81019048D02*
X151061905Y-81019048D01*
X150223810Y-80828572D02*
X150795238Y-80638096D01*
X150795238Y-81133334D01*
X150985714Y-81438096D02*
X151023810Y-81476191D01*
X151061905Y-81438096D01*
X151023810Y-81400001D01*
X150985714Y-81438096D01*
X151061905Y-81438096D01*
X150261905Y-81742858D02*
X150261905Y-82276191D01*
X151061905Y-81933334D01*
X150528571Y-82580953D02*
X151328571Y-82580953D01*
X150947619Y-82961906D02*
X151023810Y-83000001D01*
X151061905Y-83076191D01*
X150947619Y-82580953D02*
X151023810Y-82619048D01*
X151061905Y-82695239D01*
X151061905Y-82847620D01*
X151023810Y-82923810D01*
X150947619Y-82961906D01*
X150528571Y-82961906D01*
X150642857Y-83685715D02*
X150642857Y-83419048D01*
X151061905Y-83419048D02*
X150261905Y-83419048D01*
X150261905Y-83800001D01*
D14*
X131633733Y-109528990D02*
X131517619Y-109567695D01*
X131324095Y-109567695D01*
X131246685Y-109528990D01*
X131207981Y-109490286D01*
X131169276Y-109412876D01*
X131169276Y-109335467D01*
X131207981Y-109258057D01*
X131246685Y-109219352D01*
X131324095Y-109180648D01*
X131478914Y-109141943D01*
X131556323Y-109103238D01*
X131595028Y-109064533D01*
X131633733Y-108987124D01*
X131633733Y-108909714D01*
X131595028Y-108832305D01*
X131556323Y-108793600D01*
X131478914Y-108754895D01*
X131285390Y-108754895D01*
X131169276Y-108793600D01*
X130898343Y-108754895D02*
X130704819Y-109567695D01*
X130550000Y-108987124D01*
X130395181Y-109567695D01*
X130201657Y-108754895D01*
X129466267Y-109567695D02*
X129930724Y-109567695D01*
X129698495Y-109567695D02*
X129698495Y-108754895D01*
X129775905Y-108871010D01*
X129853314Y-108948419D01*
X129930724Y-108987124D01*
D11*
X142383333Y-103335715D02*
X142383333Y-103716667D01*
X142611905Y-103259524D02*
X141811905Y-103526191D01*
X142611905Y-103792858D01*
X142611905Y-104059524D02*
X141811905Y-104059524D01*
X142611905Y-104516667D01*
X141811905Y-104516667D01*
X141811905Y-104783333D02*
X141811905Y-105240476D01*
X142611905Y-105011905D02*
X141811905Y-105011905D01*
M02*
